<svg width="25" height="158" viewBox="0 0 25 158" fill="none" xmlns="http://www.w3.org/2000/svg">
<path d="M9.19742 103.594L7.78966 103.725L5.04118 103.725C4.46467 103.725 4.05128 103.844 3.80101 104.083C3.54627 104.322 3.4189 104.681 3.4189 105.159C3.4189 105.428 3.45912 105.673 3.53957 105.895C3.62001 106.112 3.74515 106.286 3.91497 106.416C4.08033 106.542 4.29484 106.605 4.55852 106.605L4.55852 107.739C4.09373 107.739 3.72057 107.629 3.43901 107.407C3.15299 107.185 2.94742 106.881 2.82228 106.495C2.69268 106.104 2.62788 105.658 2.62788 105.159C2.62788 104.681 2.71055 104.257 2.87591 103.888C3.04127 103.518 3.30494 103.23 3.66694 103.021C4.02446 102.812 4.49148 102.708 5.06799 102.708L9.19742 102.708L9.19742 103.594ZM9.3583 105.719C9.3583 106.232 9.26445 106.655 9.07675 106.99C8.88905 107.324 8.64549 107.574 8.34606 107.739C8.04663 107.904 7.73156 107.987 7.40085 107.987C6.96735 107.987 6.61429 107.883 6.34168 107.674C6.06906 107.461 5.87019 107.172 5.74506 106.807C5.61545 106.442 5.55065 106.032 5.55065 105.576C5.55065 105.25 5.58417 104.924 5.65121 104.598C5.71824 104.268 5.80986 103.946 5.92605 103.634L6.58301 103.634C6.47575 103.894 6.39084 104.19 6.32827 104.52C6.2657 104.846 6.23442 105.146 6.23442 105.419C6.23442 105.836 6.3238 106.188 6.50256 106.475C6.67686 106.762 6.97629 106.905 7.40085 106.905C7.71368 106.905 7.98183 106.797 8.20528 106.579C8.42874 106.358 8.54046 106.006 8.54046 105.524C8.54046 105.185 8.46002 104.881 8.29913 104.611C8.13378 104.337 7.9282 104.122 7.6824 103.966C7.4366 103.805 7.1908 103.725 6.945 103.725L6.945 103.477C7.37403 103.477 7.77178 103.568 8.13825 103.751C8.50471 103.929 8.79967 104.185 9.02312 104.52C9.24658 104.854 9.3583 105.254 9.3583 105.719Z" fill="#F5EFE1"/>
<path d="M9.19742 103.594L7.78966 103.725L5.04118 103.725C4.46467 103.725 4.05128 103.844 3.80101 104.083C3.54627 104.322 3.4189 104.681 3.4189 105.159C3.4189 105.428 3.45912 105.673 3.53957 105.895C3.62001 106.112 3.74515 106.286 3.91497 106.416C4.08033 106.542 4.29484 106.605 4.55852 106.605L4.55852 107.739C4.09373 107.739 3.72057 107.629 3.43901 107.407C3.15299 107.185 2.94742 106.881 2.82228 106.495C2.69268 106.104 2.62788 105.658 2.62788 105.159C2.62788 104.681 2.71055 104.257 2.87591 103.888C3.04127 103.518 3.30494 103.23 3.66694 103.021C4.02446 102.812 4.49148 102.708 5.06799 102.708L9.19742 102.708L9.19742 103.594ZM9.3583 105.719C9.3583 106.232 9.26445 106.655 9.07675 106.99C8.88905 107.324 8.64549 107.574 8.34606 107.739C8.04663 107.904 7.73156 107.987 7.40085 107.987C6.96735 107.987 6.61429 107.883 6.34168 107.674C6.06906 107.461 5.87019 107.172 5.74506 106.807C5.61545 106.442 5.55065 106.032 5.55065 105.576C5.55065 105.25 5.58417 104.924 5.65121 104.598C5.71824 104.268 5.80986 103.946 5.92605 103.634L6.58301 103.634C6.47575 103.894 6.39084 104.19 6.32827 104.52C6.2657 104.846 6.23442 105.146 6.23442 105.419C6.23442 105.836 6.3238 106.188 6.50256 106.475C6.67686 106.762 6.97629 106.905 7.40085 106.905C7.71368 106.905 7.98183 106.797 8.20528 106.579C8.42874 106.358 8.54046 106.006 8.54046 105.524C8.54046 105.185 8.46002 104.881 8.29913 104.611C8.13378 104.337 7.9282 104.122 7.6824 103.966C7.4366 103.805 7.1908 103.725 6.945 103.725L6.945 103.477C7.37403 103.477 7.77178 103.568 8.13825 103.751C8.50471 103.929 8.79967 104.185 9.02312 104.52C9.24658 104.854 9.3583 105.254 9.3583 105.719Z" fill="black"/>
<path d="M9.19742 95.8421L5.42999 95.8421C4.81772 95.8421 4.35294 95.9854 4.03564 96.2722C3.71386 96.5546 3.55297 96.9413 3.55297 97.4322C3.55297 97.8059 3.658 98.1295 3.86804 98.4033C4.07809 98.677 4.37975 98.8877 4.77303 99.0354C5.16184 99.1831 5.62663 99.257 6.16738 99.257L6.16738 99.648C5.42105 99.648 4.78421 99.5524 4.25686 99.3613C3.7295 99.1701 3.32729 98.892 3.0502 98.5271C2.76865 98.1578 2.62788 97.7103 2.62788 97.1846C2.62788 96.6936 2.74184 96.2744 2.96976 95.9268C3.19321 95.5749 3.51499 95.3055 3.93508 95.1187C4.35517 94.9318 4.85348 94.8384 5.42999 94.8384L9.19742 94.8384L9.19742 95.8421ZM9.19742 100.274L2.78876 100.274L2.78876 99.4004L4.26356 99.257L9.19742 99.257L9.19742 100.274ZM1.65585 99.1136L1.38101 99.5307C0.934098 99.4264 0.592214 99.2744 0.355353 99.0745C0.118491 98.8703 6.06258e-05 98.6357 6.06142e-05 98.3707C6.06093e-05 98.2577 0.0224058 98.1404 0.0670965 98.0188C0.107318 97.8928 0.201169 97.6929 0.348649 97.4192C0.491659 97.1498 0.585509 96.963 0.6302 96.8587C0.674891 96.7544 0.697237 96.6545 0.697237 96.5589C0.697237 96.4329 0.641373 96.3091 0.529646 96.1875C0.417919 96.0658 0.241391 95.9594 6.05049e-05 95.8681L0.308427 95.425C0.589979 95.4901 0.831309 95.5814 1.03242 95.6987C1.23353 95.8116 1.38771 95.942 1.49497 96.0897C1.60222 96.2331 1.65585 96.3808 1.65585 96.5329C1.65585 96.6632 1.62904 96.8022 1.57541 96.95C1.51731 97.0933 1.41452 97.3062 1.26704 97.5886C1.13744 97.8276 1.05476 97.9949 1.01901 98.0904C0.978788 98.186 0.958677 98.2794 0.958677 98.3707C0.958677 98.5054 1.01007 98.6357 1.11286 98.7617C1.21118 98.8833 1.39218 99.0007 1.65585 99.1136Z" fill="#F5EFE1"/>
<path d="M9.19742 95.8421L5.42999 95.8421C4.81772 95.8421 4.35294 95.9854 4.03564 96.2722C3.71386 96.5546 3.55297 96.9413 3.55297 97.4322C3.55297 97.8059 3.658 98.1295 3.86804 98.4033C4.07809 98.677 4.37975 98.8877 4.77303 99.0354C5.16184 99.1831 5.62663 99.257 6.16738 99.257L6.16738 99.648C5.42105 99.648 4.78421 99.5524 4.25686 99.3613C3.7295 99.1701 3.32729 98.892 3.0502 98.5271C2.76865 98.1578 2.62788 97.7103 2.62788 97.1846C2.62788 96.6936 2.74184 96.2744 2.96976 95.9268C3.19321 95.5749 3.51499 95.3055 3.93508 95.1187C4.35517 94.9318 4.85348 94.8384 5.42999 94.8384L9.19742 94.8384L9.19742 95.8421ZM9.19742 100.274L2.78876 100.274L2.78876 99.4004L4.26356 99.257L9.19742 99.257L9.19742 100.274ZM1.65585 99.1136L1.38101 99.5307C0.934098 99.4264 0.592214 99.2744 0.355353 99.0745C0.118491 98.8703 6.06258e-05 98.6357 6.06142e-05 98.3707C6.06093e-05 98.2577 0.0224058 98.1404 0.0670965 98.0188C0.107318 97.8928 0.201169 97.6929 0.348649 97.4192C0.491659 97.1498 0.585509 96.963 0.6302 96.8587C0.674891 96.7544 0.697237 96.6545 0.697237 96.5589C0.697237 96.4329 0.641373 96.3091 0.529646 96.1875C0.417919 96.0658 0.241391 95.9594 6.05049e-05 95.8681L0.308427 95.425C0.589979 95.4901 0.831309 95.5814 1.03242 95.6987C1.23353 95.8116 1.38771 95.942 1.49497 96.0897C1.60222 96.2331 1.65585 96.3808 1.65585 96.5329C1.65585 96.6632 1.62904 96.8022 1.57541 96.95C1.51731 97.0933 1.41452 97.3062 1.26704 97.5886C1.13744 97.8276 1.05476 97.9949 1.01901 98.0904C0.978788 98.186 0.958677 98.2794 0.958677 98.3707C0.958677 98.5054 1.01007 98.6357 1.11286 98.7617C1.21118 98.8833 1.39218 99.0007 1.65585 99.1136Z" fill="black"/>
<path d="M9.3583 90.1525C9.3583 90.7129 9.23093 91.2126 8.9762 91.6514C8.72146 92.0859 8.34382 92.4291 7.84329 92.6811C7.34275 92.9331 6.72602 93.0591 5.99309 93.0591C5.25569 93.0591 4.63896 92.9331 4.14289 92.6811C3.64236 92.4291 3.26472 92.0859 3.00998 91.6514C2.75525 91.2126 2.62788 90.7129 2.62788 90.1525C2.62788 89.5964 2.75525 89.1011 3.00998 88.6666C3.26472 88.2278 3.64236 87.8846 4.14289 87.6369C4.63896 87.3849 5.25569 87.2589 5.99309 87.2589C6.72602 87.2589 7.34275 87.3849 7.84329 87.6369C8.34382 87.8846 8.72146 88.2278 8.9762 88.6666C9.23093 89.1011 9.3583 89.5964 9.3583 90.1525ZM8.44661 90.1786C8.44661 89.7745 8.34829 89.4313 8.15165 89.1489C7.95054 88.8665 7.66676 88.6536 7.30029 88.5102C6.93383 88.3625 6.4981 88.2886 5.99309 88.2886C5.22888 88.2886 4.62779 88.4428 4.18982 88.7513C3.74738 89.0598 3.52616 89.5182 3.52616 90.1264C3.52616 90.5348 3.62671 90.8802 3.82782 91.1626C4.02446 91.4407 4.30825 91.6536 4.67918 91.8013C5.04565 91.9447 5.48362 92.0164 5.99309 92.0164C6.74836 92.0164 7.34722 91.8621 7.78966 91.5536C8.22763 91.2408 8.44661 90.7825 8.44661 90.1786Z" fill="#F5EFE1"/>
<path d="M9.3583 90.1525C9.3583 90.7129 9.23093 91.2126 8.9762 91.6514C8.72146 92.0859 8.34382 92.4291 7.84329 92.6811C7.34275 92.9331 6.72602 93.0591 5.99309 93.0591C5.25569 93.0591 4.63896 92.9331 4.14289 92.6811C3.64236 92.4291 3.26472 92.0859 3.00998 91.6514C2.75525 91.2126 2.62788 90.7129 2.62788 90.1525C2.62788 89.5964 2.75525 89.1011 3.00998 88.6666C3.26472 88.2278 3.64236 87.8846 4.14289 87.6369C4.63896 87.3849 5.25569 87.2589 5.99309 87.2589C6.72602 87.2589 7.34275 87.3849 7.84329 87.6369C8.34382 87.8846 8.72146 88.2278 8.9762 88.6666C9.23093 89.1011 9.3583 89.5964 9.3583 90.1525ZM8.44661 90.1786C8.44661 89.7745 8.34829 89.4313 8.15165 89.1489C7.95054 88.8665 7.66676 88.6536 7.30029 88.5102C6.93383 88.3625 6.4981 88.2886 5.99309 88.2886C5.22888 88.2886 4.62779 88.4428 4.18982 88.7513C3.74738 89.0598 3.52616 89.5182 3.52616 90.1264C3.52616 90.5348 3.62671 90.8802 3.82782 91.1626C4.02446 91.4407 4.30825 91.6536 4.67918 91.8013C5.04565 91.9447 5.48362 92.0164 5.99309 92.0164C6.74836 92.0164 7.34722 91.8621 7.78966 91.5536C8.22763 91.2408 8.44661 90.7825 8.44661 90.1786Z" fill="black"/>
<path d="M9.3583 83.0375C9.3583 83.6414 9.27116 84.1454 9.09686 84.5495C8.9181 84.9535 8.67453 85.2598 8.36617 85.4684C8.05333 85.6769 7.69581 85.7877 7.29359 85.8007L7.29359 84.8232C7.70028 84.8015 8.00641 84.6429 8.21199 84.3474C8.41309 84.0476 8.51365 83.6414 8.51365 83.1287C8.51365 82.8594 8.46896 82.6117 8.37958 82.3858C8.29019 82.1599 8.16729 81.9796 8.01088 81.8449C7.85446 81.7102 7.67793 81.6429 7.48129 81.6429C7.23102 81.6429 7.03438 81.7319 6.89137 81.9101C6.74836 82.0882 6.62323 82.3728 6.51597 82.7638L6.11376 83.976C5.94393 84.5017 5.71154 84.9057 5.41658 85.1881C5.11715 85.4662 4.75962 85.6052 4.344 85.6052C3.82559 85.6052 3.40996 85.3836 3.09713 84.9405C2.78429 84.4973 2.62788 83.9151 2.62788 83.1939C2.62788 82.4293 2.78876 81.8362 3.11054 81.4148C3.43231 80.9933 3.83453 80.7739 4.31719 80.7565L4.31719 81.7602C4.03564 81.7993 3.82335 81.9383 3.68034 82.1773C3.53286 82.4162 3.45912 82.7551 3.45912 83.1939C3.45912 83.6154 3.55744 83.9455 3.75408 84.1845C3.94625 84.4191 4.16077 84.5364 4.39763 84.5364C4.84007 84.5364 5.16631 84.1671 5.37636 83.4285L5.80539 82.1903C5.97074 81.6559 6.18749 81.2475 6.45564 80.9651C6.72378 80.6783 7.06567 80.535 7.48129 80.535C7.80307 80.535 8.10696 80.6371 8.39298 80.8413C8.679 81.0455 8.9114 81.3344 9.09016 81.708C9.26892 82.0817 9.3583 82.5248 9.3583 83.0375Z" fill="#F5EFE1"/>
<path d="M9.3583 83.0375C9.3583 83.6414 9.27116 84.1454 9.09686 84.5495C8.9181 84.9535 8.67453 85.2598 8.36617 85.4684C8.05333 85.6769 7.69581 85.7877 7.29359 85.8007L7.29359 84.8232C7.70028 84.8015 8.00641 84.6429 8.21199 84.3474C8.41309 84.0476 8.51365 83.6414 8.51365 83.1287C8.51365 82.8594 8.46896 82.6117 8.37958 82.3858C8.29019 82.1599 8.16729 81.9796 8.01088 81.8449C7.85446 81.7102 7.67793 81.6429 7.48129 81.6429C7.23102 81.6429 7.03438 81.7319 6.89137 81.9101C6.74836 82.0882 6.62323 82.3728 6.51597 82.7638L6.11376 83.976C5.94393 84.5017 5.71154 84.9057 5.41658 85.1881C5.11715 85.4662 4.75962 85.6052 4.344 85.6052C3.82559 85.6052 3.40996 85.3836 3.09713 84.9405C2.78429 84.4973 2.62788 83.9151 2.62788 83.1939C2.62788 82.4293 2.78876 81.8362 3.11054 81.4148C3.43231 80.9933 3.83453 80.7739 4.31719 80.7565L4.31719 81.7602C4.03564 81.7993 3.82335 81.9383 3.68034 82.1773C3.53286 82.4162 3.45912 82.7551 3.45912 83.1939C3.45912 83.6154 3.55744 83.9455 3.75408 84.1845C3.94625 84.4191 4.16077 84.5364 4.39763 84.5364C4.84007 84.5364 5.16631 84.1671 5.37636 83.4285L5.80539 82.1903C5.97074 81.6559 6.18749 81.2475 6.45564 80.9651C6.72378 80.6783 7.06567 80.535 7.48129 80.535C7.80307 80.535 8.10696 80.6371 8.39298 80.8413C8.679 81.0455 8.9114 81.3344 9.09016 81.708C9.26892 82.0817 9.3583 82.5248 9.3583 83.0375Z" fill="black"/>
<path d="M9.3583 73.1095C9.3583 73.6135 9.21976 74.0762 8.94268 74.4976C8.66113 74.9191 8.26785 75.2558 7.76284 75.5078C7.25337 75.7598 6.65451 75.8858 5.96628 75.8858C5.28251 75.8858 4.69035 75.7619 4.18982 75.5143C3.68928 75.2667 3.30494 74.9386 3.0368 74.5302C2.76418 74.1175 2.62788 73.6656 2.62788 73.1747C2.62788 72.7185 2.74184 72.3188 2.96976 71.9755C3.19768 71.628 3.52616 71.3586 3.95519 71.1674C4.38422 70.9763 4.90263 70.8807 5.51043 70.8807L5.51043 71.2717C5.08587 71.2717 4.72834 71.3543 4.43785 71.5194C4.14736 71.6801 3.92838 71.8908 3.7809 72.1515C3.62895 72.4122 3.55297 72.6924 3.55297 72.9922C3.55297 73.3311 3.65129 73.6417 3.84793 73.9241C4.0401 74.2022 4.31719 74.426 4.67918 74.5954C5.03671 74.7605 5.46574 74.843 5.96628 74.843C6.47575 74.843 6.91372 74.7605 7.28018 74.5954C7.64665 74.426 7.9282 74.2022 8.12484 73.9241C8.32148 73.6417 8.4198 73.3311 8.4198 72.9922C8.4198 72.7098 8.34382 72.4383 8.19187 72.1776C8.03993 71.9126 7.81871 71.6953 7.52822 71.5259C7.23326 71.3564 6.87797 71.2717 6.46234 71.2717L6.46234 70.8807C7.08354 70.8807 7.61089 70.9806 8.04439 71.1805C8.47343 71.376 8.79967 71.6432 9.02312 71.9821C9.24658 72.3166 9.3583 72.6924 9.3583 73.1095ZM9.19742 71.1023L7.69581 71.2717L0.0536885 71.2717L0.0536884 70.2551L9.19742 70.2551L9.19742 71.1023Z" fill="#F5EFE1"/>
<path d="M9.3583 73.1095C9.3583 73.6135 9.21976 74.0762 8.94268 74.4976C8.66113 74.9191 8.26785 75.2558 7.76284 75.5078C7.25337 75.7598 6.65451 75.8858 5.96628 75.8858C5.28251 75.8858 4.69035 75.7619 4.18982 75.5143C3.68928 75.2667 3.30494 74.9386 3.0368 74.5302C2.76418 74.1175 2.62788 73.6656 2.62788 73.1747C2.62788 72.7185 2.74184 72.3188 2.96976 71.9755C3.19768 71.628 3.52616 71.3586 3.95519 71.1674C4.38422 70.9763 4.90263 70.8807 5.51043 70.8807L5.51043 71.2717C5.08587 71.2717 4.72834 71.3543 4.43785 71.5194C4.14736 71.6801 3.92838 71.8908 3.7809 72.1515C3.62895 72.4122 3.55297 72.6924 3.55297 72.9922C3.55297 73.3311 3.65129 73.6417 3.84793 73.9241C4.0401 74.2022 4.31719 74.426 4.67918 74.5954C5.03671 74.7605 5.46574 74.843 5.96628 74.843C6.47575 74.843 6.91372 74.7605 7.28018 74.5954C7.64665 74.426 7.9282 74.2022 8.12484 73.9241C8.32148 73.6417 8.4198 73.3311 8.4198 72.9922C8.4198 72.7098 8.34382 72.4383 8.19187 72.1776C8.03993 71.9126 7.81871 71.6953 7.52822 71.5259C7.23326 71.3564 6.87797 71.2717 6.46234 71.2717L6.46234 70.8807C7.08354 70.8807 7.61089 70.9806 8.04439 71.1805C8.47343 71.376 8.79967 71.6432 9.02312 71.9821C9.24658 72.3166 9.3583 72.6924 9.3583 73.1095ZM9.19742 71.1023L7.69581 71.2717L0.0536885 71.2717L0.0536884 70.2551L9.19742 70.2551L9.19742 71.1023Z" fill="black"/>
<path d="M9.3583 65.4484C9.3583 65.9872 9.21753 66.4694 8.93598 66.8952C8.64995 67.3166 8.25444 67.6512 7.74944 67.8988C7.24443 68.1421 6.66345 68.2638 6.0065 68.2638C5.30485 68.2638 4.70153 68.1421 4.19652 67.8988C3.69152 67.6555 3.30494 67.3232 3.0368 66.9017C2.76418 66.4759 2.62788 65.9915 2.62788 65.4484C2.62788 64.9749 2.72619 64.5708 2.92283 64.2363C3.11947 63.9017 3.38538 63.6323 3.72056 63.4281C4.05574 63.2239 4.43562 63.0827 4.86018 63.0045C5.28027 62.922 5.71601 62.8981 6.16738 62.9329L6.16738 67.4426L5.52384 67.4426L5.52384 63.6041L5.72494 63.9039C5.46127 63.8909 5.19759 63.9061 4.93392 63.9495C4.67024 63.9886 4.42891 64.0646 4.20993 64.1776C3.98647 64.2906 3.80771 64.4491 3.67364 64.6534C3.53957 64.8576 3.47253 65.1182 3.47253 65.4354C3.47253 65.8351 3.57755 66.1696 3.7876 66.439C3.99765 66.7084 4.27473 66.9104 4.61885 67.0451C4.9585 67.1798 5.3272 67.2471 5.72494 67.2471L6.15398 67.2471C6.60088 67.2471 7.00087 67.182 7.35392 67.0516C7.70698 66.9169 7.9863 66.7171 8.19187 66.4521C8.39745 66.187 8.50024 65.8525 8.50024 65.4484C8.50024 65.0444 8.39969 64.712 8.19858 64.4513C7.99747 64.1906 7.70028 64.0321 7.307 63.9756L7.307 62.9198C7.73156 62.985 8.09802 63.1327 8.40639 63.363C8.71029 63.5932 8.94491 63.8865 9.11027 64.2428C9.27562 64.599 9.3583 65.0009 9.3583 65.4484Z" fill="#F5EFE1"/>
<path d="M9.3583 65.4484C9.3583 65.9872 9.21753 66.4694 8.93598 66.8952C8.64995 67.3166 8.25444 67.6512 7.74944 67.8988C7.24443 68.1421 6.66345 68.2638 6.0065 68.2638C5.30485 68.2638 4.70153 68.1421 4.19652 67.8988C3.69152 67.6555 3.30494 67.3232 3.0368 66.9017C2.76418 66.4759 2.62788 65.9915 2.62788 65.4484C2.62788 64.9749 2.72619 64.5708 2.92283 64.2363C3.11947 63.9017 3.38538 63.6323 3.72056 63.4281C4.05574 63.2239 4.43562 63.0827 4.86018 63.0045C5.28027 62.922 5.71601 62.8981 6.16738 62.9329L6.16738 67.4426L5.52384 67.4426L5.52384 63.6041L5.72494 63.9039C5.46127 63.8909 5.19759 63.9061 4.93392 63.9495C4.67024 63.9886 4.42891 64.0646 4.20993 64.1776C3.98647 64.2906 3.80771 64.4491 3.67364 64.6534C3.53957 64.8576 3.47253 65.1182 3.47253 65.4354C3.47253 65.8351 3.57755 66.1696 3.7876 66.439C3.99765 66.7084 4.27473 66.9104 4.61885 67.0451C4.9585 67.1798 5.3272 67.2471 5.72494 67.2471L6.15398 67.2471C6.60088 67.2471 7.00087 67.182 7.35392 67.0516C7.70698 66.9169 7.9863 66.7171 8.19187 66.4521C8.39745 66.187 8.50024 65.8525 8.50024 65.4484C8.50024 65.0444 8.39969 64.712 8.19858 64.4513C7.99747 64.1906 7.70028 64.0321 7.307 63.9756L7.307 62.9198C7.73156 62.985 8.09802 63.1327 8.40639 63.363C8.71029 63.5932 8.94491 63.8865 9.11027 64.2428C9.27562 64.599 9.3583 65.0009 9.3583 65.4484Z" fill="black"/>
<path d="M9.19742 60.9169L0.053688 60.9169L0.053688 59.9002L9.19742 59.9002L9.19742 60.9169Z" fill="#F5EFE1"/>
<path d="M9.19742 60.9169L0.053688 60.9169L0.053688 59.9002L9.19742 59.9002L9.19742 60.9169Z" fill="black"/>
<path d="M9.3583 51.2902C9.3583 51.9419 9.18401 52.5349 8.83542 53.0693C8.48683 53.6037 7.993 54.0295 7.35392 54.3467C6.71484 54.6638 5.95734 54.8224 5.0814 54.8224C4.35294 54.8224 3.71163 54.7203 3.15746 54.5161C2.60329 54.3119 2.13851 54.0317 1.76311 53.6754C1.38771 53.3191 1.10615 52.9107 0.918454 52.4502C0.726283 51.9853 0.630198 51.4944 0.630198 50.9774C0.630198 50.3387 0.766505 49.7782 1.03912 49.296C1.30726 48.8137 1.73406 48.4009 2.31951 48.0577L2.6681 49.0222C2.29716 49.3133 2.02455 49.6262 1.85026 49.9607C1.67149 50.2909 1.58211 50.6428 1.58211 51.0165C1.58211 51.5074 1.72289 51.9593 2.00444 52.372C2.28599 52.7847 2.68821 53.1171 3.21109 53.3691C3.73397 53.6167 4.35741 53.7406 5.0814 53.7406C5.72494 53.7406 6.29699 53.6385 6.79752 53.4343C7.29359 53.2301 7.68463 52.9412 7.97065 52.5675C8.25221 52.1895 8.39298 51.742 8.39298 51.225C8.39298 50.8296 8.29913 50.4755 8.11143 50.1627C7.92373 49.8456 7.64218 49.5957 7.26677 49.4133C6.8869 49.2308 6.40871 49.1395 5.8322 49.1395L5.8322 48.8267C6.54725 48.8267 7.16845 48.9093 7.69581 49.0744C8.22316 49.2395 8.63208 49.5045 8.92257 49.8695C9.21306 50.2301 9.3583 50.7036 9.3583 51.2902ZM9.19741 48.9571L7.21315 49.1395L5.80539 49.1395L5.73835 51.1989L5.02777 51.1989L5.02777 48.149L9.19741 48.149L9.19741 48.9571Z" fill="#F5EFE1"/>
<path d="M9.3583 51.2902C9.3583 51.9419 9.18401 52.5349 8.83542 53.0693C8.48683 53.6037 7.993 54.0295 7.35392 54.3467C6.71484 54.6638 5.95734 54.8224 5.0814 54.8224C4.35294 54.8224 3.71163 54.7203 3.15746 54.5161C2.60329 54.3119 2.13851 54.0317 1.76311 53.6754C1.38771 53.3191 1.10615 52.9107 0.918454 52.4502C0.726283 51.9853 0.630198 51.4944 0.630198 50.9774C0.630198 50.3387 0.766505 49.7782 1.03912 49.296C1.30726 48.8137 1.73406 48.4009 2.31951 48.0577L2.6681 49.0222C2.29716 49.3133 2.02455 49.6262 1.85026 49.9607C1.67149 50.2909 1.58211 50.6428 1.58211 51.0165C1.58211 51.5074 1.72289 51.9593 2.00444 52.372C2.28599 52.7847 2.68821 53.1171 3.21109 53.3691C3.73397 53.6167 4.35741 53.7406 5.0814 53.7406C5.72494 53.7406 6.29699 53.6385 6.79752 53.4343C7.29359 53.2301 7.68463 52.9412 7.97065 52.5675C8.25221 52.1895 8.39298 51.742 8.39298 51.225C8.39298 50.8296 8.29913 50.4755 8.11143 50.1627C7.92373 49.8456 7.64218 49.5957 7.26677 49.4133C6.8869 49.2308 6.40871 49.1395 5.8322 49.1395L5.8322 48.8267C6.54725 48.8267 7.16845 48.9093 7.69581 49.0744C8.22316 49.2395 8.63208 49.5045 8.92257 49.8695C9.21306 50.2301 9.3583 50.7036 9.3583 51.2902ZM9.19741 48.9571L7.21315 49.1395L5.80539 49.1395L5.73835 51.1989L5.02777 51.1989L5.02777 48.149L9.19741 48.149L9.19741 48.9571Z" fill="black"/>
<path d="M9.3583 43.5277C9.3583 44.0881 9.23093 44.5878 8.9762 45.0266C8.72146 45.4611 8.34382 45.8043 7.84328 46.0563C7.34275 46.3083 6.72602 46.4343 5.99309 46.4343C5.25569 46.4343 4.63896 46.3083 4.14289 46.0563C3.64235 45.8043 3.26472 45.4611 3.00998 45.0266C2.75524 44.5878 2.62787 44.0881 2.62787 43.5277C2.62787 42.9715 2.75524 42.4762 3.00998 42.0418C3.26472 41.603 3.64235 41.2597 4.14289 41.0121C4.63896 40.7601 5.25569 40.6341 5.99309 40.6341C6.72602 40.6341 7.34275 40.7601 7.84328 41.0121C8.34382 41.2597 8.72146 41.603 8.9762 42.0418C9.23093 42.4762 9.3583 42.9715 9.3583 43.5277ZM8.44661 43.5537C8.44661 43.1497 8.34829 42.8064 8.15165 42.524C7.95054 42.2416 7.66676 42.0287 7.30029 41.8854C6.93383 41.7377 6.49809 41.6638 5.99309 41.6638C5.22888 41.6638 4.62778 41.818 4.18982 42.1265C3.74738 42.435 3.52616 42.8933 3.52616 43.5016C3.52616 43.91 3.62671 44.2554 3.82782 44.5378C4.02446 44.8159 4.30825 45.0288 4.67918 45.1765C5.04564 45.3199 5.48361 45.3915 5.99309 45.3915C6.74836 45.3915 7.34722 45.2373 7.78966 44.9288C8.22763 44.616 8.44661 44.1576 8.44661 43.5537Z" fill="#F5EFE1"/>
<path d="M9.3583 43.5277C9.3583 44.0881 9.23093 44.5878 8.9762 45.0266C8.72146 45.4611 8.34382 45.8043 7.84328 46.0563C7.34275 46.3083 6.72602 46.4343 5.99309 46.4343C5.25569 46.4343 4.63896 46.3083 4.14289 46.0563C3.64235 45.8043 3.26472 45.4611 3.00998 45.0266C2.75524 44.5878 2.62787 44.0881 2.62787 43.5277C2.62787 42.9715 2.75524 42.4762 3.00998 42.0418C3.26472 41.603 3.64235 41.2597 4.14289 41.0121C4.63896 40.7601 5.25569 40.6341 5.99309 40.6341C6.72602 40.6341 7.34275 40.7601 7.84328 41.0121C8.34382 41.2597 8.72146 41.603 8.9762 42.0418C9.23093 42.4762 9.3583 42.9715 9.3583 43.5277ZM8.44661 43.5537C8.44661 43.1497 8.34829 42.8064 8.15165 42.524C7.95054 42.2416 7.66676 42.0287 7.30029 41.8854C6.93383 41.7377 6.49809 41.6638 5.99309 41.6638C5.22888 41.6638 4.62778 41.818 4.18982 42.1265C3.74738 42.435 3.52616 42.8933 3.52616 43.5016C3.52616 43.91 3.62671 44.2554 3.82782 44.5378C4.02446 44.8159 4.30825 45.0288 4.67918 45.1765C5.04564 45.3199 5.48361 45.3915 5.99309 45.3915C6.74836 45.3915 7.34722 45.2373 7.78966 44.9288C8.22763 44.616 8.44661 44.1576 8.44661 43.5537Z" fill="black"/>
<path d="M9.19741 38.6546L0.0536871 38.6546L0.053687 37.6379L9.19741 37.6379L9.19741 38.6546Z" fill="#F5EFE1"/>
<path d="M9.19741 38.6546L0.0536871 38.6546L0.053687 37.6379L9.19741 37.6379L9.19741 38.6546Z" fill="black"/>
<path d="M9.3583 32.1731C9.3583 32.6292 9.25104 33.0268 9.03653 33.3657C8.82201 33.7002 8.50918 33.9587 8.09802 34.1412C7.6824 34.3237 7.17739 34.4149 6.58301 34.4149L6.58301 33.9848C6.98075 33.9848 7.31593 33.9044 7.58855 33.7437C7.86116 33.5829 8.06897 33.3744 8.21198 33.118C8.35052 32.8573 8.4198 32.5815 8.4198 32.2904C8.4198 31.9775 8.32818 31.6778 8.14495 31.391C7.95725 31.1043 7.6824 30.8696 7.3204 30.6872C6.95841 30.5047 6.5115 30.4135 5.97968 30.4135C5.47021 30.4135 5.03447 30.4982 4.67248 30.6676C4.31048 30.8327 4.0334 31.0565 3.84123 31.3389C3.64906 31.6213 3.55297 31.9341 3.55297 32.2773C3.55297 32.5728 3.62671 32.8508 3.77419 33.1115C3.92167 33.3722 4.13842 33.5829 4.42444 33.7437C4.70599 33.9044 5.05458 33.9848 5.47021 33.9848L5.47021 34.4149C4.849 34.4149 4.32836 34.315 3.90826 34.1151C3.4837 33.9153 3.16416 33.6437 2.94965 33.3005C2.73513 32.9573 2.62787 32.5728 2.62787 32.147C2.62787 31.6604 2.76195 31.2064 3.03009 30.7849C3.29824 30.3635 3.68258 30.0224 4.18311 29.7617C4.68365 29.5011 5.2825 29.3707 5.97968 29.3707C6.68579 29.3707 7.29135 29.5032 7.79636 29.7683C8.30136 30.029 8.68794 30.3722 8.95608 30.798C9.22423 31.2237 9.3583 31.6821 9.3583 32.1731ZM12.3481 35.0014L2.78876 35.0014L2.78876 34.1542L4.29037 33.9848L12.3481 33.9848L12.3481 35.0014Z" fill="#F5EFE1"/>
<path d="M9.3583 32.1731C9.3583 32.6292 9.25104 33.0268 9.03653 33.3657C8.82201 33.7002 8.50918 33.9587 8.09802 34.1412C7.6824 34.3237 7.17739 34.4149 6.58301 34.4149L6.58301 33.9848C6.98075 33.9848 7.31593 33.9044 7.58855 33.7437C7.86116 33.5829 8.06897 33.3744 8.21198 33.118C8.35052 32.8573 8.4198 32.5815 8.4198 32.2904C8.4198 31.9775 8.32818 31.6778 8.14495 31.391C7.95725 31.1043 7.6824 30.8696 7.3204 30.6872C6.95841 30.5047 6.5115 30.4135 5.97968 30.4135C5.47021 30.4135 5.03447 30.4982 4.67248 30.6676C4.31048 30.8327 4.0334 31.0565 3.84123 31.3389C3.64906 31.6213 3.55297 31.9341 3.55297 32.2773C3.55297 32.5728 3.62671 32.8508 3.77419 33.1115C3.92167 33.3722 4.13842 33.5829 4.42444 33.7437C4.70599 33.9044 5.05458 33.9848 5.47021 33.9848L5.47021 34.4149C4.849 34.4149 4.32836 34.315 3.90826 34.1151C3.4837 33.9153 3.16416 33.6437 2.94965 33.3005C2.73513 32.9573 2.62787 32.5728 2.62787 32.147C2.62787 31.6604 2.76195 31.2064 3.03009 30.7849C3.29824 30.3635 3.68258 30.0224 4.18311 29.7617C4.68365 29.5011 5.2825 29.3707 5.97968 29.3707C6.68579 29.3707 7.29135 29.5032 7.79636 29.7683C8.30136 30.029 8.68794 30.3722 8.95608 30.798C9.22423 31.2237 9.3583 31.6821 9.3583 32.1731ZM12.3481 35.0014L2.78876 35.0014L2.78876 34.1542L4.29037 33.9848L12.3481 33.9848L12.3481 35.0014Z" fill="black"/>
<path d="M9.3583 25.2134C9.3583 25.7521 9.21752 26.2344 8.93597 26.6602C8.64995 27.0816 8.25444 27.4161 7.74943 27.6638C7.24443 27.9071 6.66345 28.0287 6.00649 28.0287C5.30485 28.0287 4.70152 27.9071 4.19652 27.6638C3.69151 27.4205 3.30494 27.0881 3.03679 26.6667C2.76418 26.2409 2.62787 25.7565 2.62787 25.2134C2.62787 24.7398 2.72619 24.3357 2.92283 24.0012C3.11947 23.6667 3.38538 23.3973 3.72056 23.1931C4.05574 22.9889 4.43561 22.8477 4.86018 22.7695C5.28027 22.6869 5.716 22.663 6.16738 22.6978L6.16738 27.2076L5.52383 27.2076L5.52383 23.369L5.72494 23.6688C5.46127 23.6558 5.19759 23.671 4.93392 23.7144C4.67024 23.7535 4.42891 23.8296 4.20993 23.9425C3.98647 24.0555 3.80771 24.2141 3.67364 24.4183C3.53957 24.6225 3.47253 24.8832 3.47253 25.2003C3.47253 25.6001 3.57755 25.9346 3.7876 26.204C3.99764 26.4733 4.27473 26.6754 4.61885 26.81C4.9585 26.9447 5.32719 27.0121 5.72494 27.0121L6.15397 27.0121C6.60088 27.0121 7.00086 26.9469 7.35392 26.8166C7.70698 26.6819 7.98629 26.482 8.19187 26.217C8.39745 25.952 8.50024 25.6174 8.50024 25.2134C8.50024 24.8093 8.39968 24.4769 8.19858 24.2163C7.99747 23.9556 7.70027 23.797 7.307 23.7405L7.307 22.6848C7.73156 22.7499 8.09802 22.8977 8.40639 23.1279C8.71028 23.3582 8.94491 23.6515 9.11027 24.0077C9.27562 24.364 9.3583 24.7659 9.3583 25.2134Z" fill="#F5EFE1"/>
<path d="M9.3583 25.2134C9.3583 25.7521 9.21752 26.2344 8.93597 26.6602C8.64995 27.0816 8.25444 27.4161 7.74943 27.6638C7.24443 27.9071 6.66345 28.0287 6.00649 28.0287C5.30485 28.0287 4.70152 27.9071 4.19652 27.6638C3.69151 27.4205 3.30494 27.0881 3.03679 26.6667C2.76418 26.2409 2.62787 25.7565 2.62787 25.2134C2.62787 24.7398 2.72619 24.3357 2.92283 24.0012C3.11947 23.6667 3.38538 23.3973 3.72056 23.1931C4.05574 22.9889 4.43561 22.8477 4.86018 22.7695C5.28027 22.6869 5.716 22.663 6.16738 22.6978L6.16738 27.2076L5.52383 27.2076L5.52383 23.369L5.72494 23.6688C5.46127 23.6558 5.19759 23.671 4.93392 23.7144C4.67024 23.7535 4.42891 23.8296 4.20993 23.9425C3.98647 24.0555 3.80771 24.2141 3.67364 24.4183C3.53957 24.6225 3.47253 24.8832 3.47253 25.2003C3.47253 25.6001 3.57755 25.9346 3.7876 26.204C3.99764 26.4733 4.27473 26.6754 4.61885 26.81C4.9585 26.9447 5.32719 27.0121 5.72494 27.0121L6.15397 27.0121C6.60088 27.0121 7.00086 26.9469 7.35392 26.8166C7.70698 26.6819 7.98629 26.482 8.19187 26.217C8.39745 25.952 8.50024 25.6174 8.50024 25.2134C8.50024 24.8093 8.39968 24.4769 8.19858 24.2163C7.99747 23.9556 7.70027 23.797 7.307 23.7405L7.307 22.6848C7.73156 22.7499 8.09802 22.8977 8.40639 23.1279C8.71028 23.3582 8.94491 23.6515 9.11027 24.0077C9.27562 24.364 9.3583 24.7659 9.3583 25.2134Z" fill="black"/>
<path d="M25.0001 105.224C25.0001 105.728 24.8615 106.19 24.5844 106.612C24.3029 107.033 23.9096 107.37 23.4046 107.622C22.8951 107.874 22.2963 108 21.608 108C20.9243 108 20.3321 107.876 19.8316 107.629C19.331 107.381 18.9467 107.053 18.6786 106.644C18.4059 106.232 18.2696 105.78 18.2696 105.289C18.2696 104.833 18.3836 104.433 18.6115 104.09C18.8394 103.742 19.1679 103.473 19.597 103.282C20.026 103.09 20.5444 102.995 21.1522 102.995L21.1522 103.386C20.7276 103.386 20.3701 103.468 20.0796 103.634C19.7891 103.794 19.5701 104.005 19.4227 104.266C19.2707 104.526 19.1947 104.807 19.1947 105.106C19.1947 105.445 19.2931 105.756 19.4897 106.038C19.6819 106.316 19.9589 106.54 20.3209 106.71C20.6785 106.875 21.1075 106.957 21.608 106.957C22.1175 106.957 22.5555 106.875 22.9219 106.71C23.2884 106.54 23.57 106.316 23.7666 106.038C23.9632 105.756 24.0616 105.445 24.0616 105.106C24.0616 104.824 23.9856 104.552 23.8336 104.292C23.6817 104.027 23.4605 103.81 23.17 103.64C22.875 103.471 22.5197 103.386 22.1041 103.386L22.1041 102.995C22.7253 102.995 23.2527 103.095 23.6862 103.295C24.1152 103.49 24.4414 103.757 24.6649 104.096C24.8883 104.431 25.0001 104.807 25.0001 105.224ZM24.8392 103.216L23.3376 103.386L15.6955 103.386L15.6955 102.369L24.8392 102.369L24.8392 103.216Z" fill="#F5EFE1"/>
<path d="M25.0001 105.224C25.0001 105.728 24.8615 106.19 24.5844 106.612C24.3029 107.033 23.9096 107.37 23.4046 107.622C22.8951 107.874 22.2963 108 21.608 108C20.9243 108 20.3321 107.876 19.8316 107.629C19.331 107.381 18.9467 107.053 18.6786 106.644C18.4059 106.232 18.2696 105.78 18.2696 105.289C18.2696 104.833 18.3836 104.433 18.6115 104.09C18.8394 103.742 19.1679 103.473 19.597 103.282C20.026 103.09 20.5444 102.995 21.1522 102.995L21.1522 103.386C20.7276 103.386 20.3701 103.468 20.0796 103.634C19.7891 103.794 19.5701 104.005 19.4227 104.266C19.2707 104.526 19.1947 104.807 19.1947 105.106C19.1947 105.445 19.2931 105.756 19.4897 106.038C19.6819 106.316 19.9589 106.54 20.3209 106.71C20.6785 106.875 21.1075 106.957 21.608 106.957C22.1175 106.957 22.5555 106.875 22.9219 106.71C23.2884 106.54 23.57 106.316 23.7666 106.038C23.9632 105.756 24.0616 105.445 24.0616 105.106C24.0616 104.824 23.9856 104.552 23.8336 104.292C23.6817 104.027 23.4605 103.81 23.17 103.64C22.875 103.471 22.5197 103.386 22.1041 103.386L22.1041 102.995C22.7253 102.995 23.2527 103.095 23.6862 103.295C24.1152 103.49 24.4414 103.757 24.6649 104.096C24.8883 104.431 25.0001 104.807 25.0001 105.224ZM24.8392 103.216L23.3376 103.386L15.6955 103.386L15.6955 102.369L24.8392 102.369L24.8392 103.216Z" fill="black"/>
<path d="M25.0001 97.5627C25.0001 98.1014 24.8593 98.5837 24.5777 99.0094C24.2917 99.4309 23.8962 99.7654 23.3912 100.013C22.8862 100.256 22.3052 100.378 21.6483 100.378C20.9466 100.378 20.3433 100.256 19.8383 100.013C19.3333 99.7698 18.9467 99.4374 18.6786 99.016C18.4059 98.5902 18.2696 98.1057 18.2696 97.5627C18.2696 97.0891 18.368 96.685 18.5646 96.3505C18.7612 96.0159 19.0271 95.7466 19.3623 95.5424C19.6975 95.3382 20.0774 95.197 20.5019 95.1188C20.922 95.0362 21.3578 95.0123 21.8091 95.0471L21.8091 99.5569L21.1656 99.5569L21.1656 95.7183L21.3667 96.0181C21.103 96.0051 20.8394 96.0203 20.5757 96.0637C20.312 96.1028 20.0707 96.1789 19.8517 96.2918C19.6282 96.4048 19.4495 96.5634 19.3154 96.7676C19.1813 96.9718 19.1143 97.2325 19.1143 97.5496C19.1143 97.9493 19.2193 98.2839 19.4294 98.5532C19.6394 98.8226 19.9165 99.0246 20.2606 99.1593C20.6003 99.294 20.969 99.3614 21.3667 99.3614L21.7957 99.3614C22.2426 99.3614 22.6426 99.2962 22.9957 99.1659C23.3487 99.0312 23.6281 98.8313 23.8336 98.5663C24.0392 98.3013 24.142 97.9667 24.142 97.5627C24.142 97.1586 24.0414 96.8262 23.8403 96.5656C23.6392 96.3049 23.342 96.1463 22.9488 96.0898L22.9488 95.034C23.3733 95.0992 23.7398 95.2469 24.0482 95.4772C24.352 95.7075 24.5867 96.0007 24.752 96.357C24.9174 96.7133 25.0001 97.1152 25.0001 97.5627Z" fill="#F5EFE1"/>
<path d="M25.0001 97.5627C25.0001 98.1014 24.8593 98.5837 24.5777 99.0094C24.2917 99.4309 23.8962 99.7654 23.3912 100.013C22.8862 100.256 22.3052 100.378 21.6483 100.378C20.9466 100.378 20.3433 100.256 19.8383 100.013C19.3333 99.7698 18.9467 99.4374 18.6786 99.016C18.4059 98.5902 18.2696 98.1057 18.2696 97.5627C18.2696 97.0891 18.368 96.685 18.5646 96.3505C18.7612 96.0159 19.0271 95.7466 19.3623 95.5424C19.6975 95.3382 20.0774 95.197 20.5019 95.1188C20.922 95.0362 21.3578 95.0123 21.8091 95.0471L21.8091 99.5569L21.1656 99.5569L21.1656 95.7183L21.3667 96.0181C21.103 96.0051 20.8394 96.0203 20.5757 96.0637C20.312 96.1028 20.0707 96.1789 19.8517 96.2918C19.6282 96.4048 19.4495 96.5634 19.3154 96.7676C19.1813 96.9718 19.1143 97.2325 19.1143 97.5496C19.1143 97.9493 19.2193 98.2839 19.4294 98.5532C19.6394 98.8226 19.9165 99.0246 20.2606 99.1593C20.6003 99.294 20.969 99.3614 21.3667 99.3614L21.7957 99.3614C22.2426 99.3614 22.6426 99.2962 22.9957 99.1659C23.3487 99.0312 23.6281 98.8313 23.8336 98.5663C24.0392 98.3013 24.142 97.9667 24.142 97.5627C24.142 97.1586 24.0414 96.8262 23.8403 96.5656C23.6392 96.3049 23.342 96.1463 22.9488 96.0898L22.9488 95.034C23.3733 95.0992 23.7398 95.2469 24.0482 95.4772C24.352 95.7075 24.5867 96.0007 24.752 96.357C24.9174 96.7133 25.0001 97.1152 25.0001 97.5627Z" fill="black"/>
<path d="M24.8392 89.9511L16.4194 89.9511L16.4194 84.9069L17.3177 84.9069L17.3177 88.9344L20.1466 88.9344L20.1466 85.1415L21.0449 85.1415L21.0449 88.9344L23.9275 88.9344L23.9275 84.9069L24.8392 84.9069L24.8392 89.9511Z" fill="#F5EFE1"/>
<path d="M24.8392 89.9511L16.4194 89.9511L16.4194 84.9069L17.3177 84.9069L17.3177 88.9344L20.1466 88.9344L20.1466 85.1415L21.0449 85.1415L21.0449 88.9344L23.9275 88.9344L23.9275 84.9069L24.8392 84.9069L24.8392 89.9511Z" fill="black"/>
<path d="M25.0001 80.3772C25.0001 80.9811 24.9129 81.4851 24.7386 81.8892C24.5599 82.2932 24.3163 82.5995 24.0079 82.8081C23.6951 83.0166 23.3376 83.1274 22.9354 83.1405L22.9354 82.1629C23.342 82.1412 23.6482 81.9826 23.8537 81.6872C24.0549 81.3874 24.1554 80.9811 24.1554 80.4685C24.1554 80.1991 24.1107 79.9514 24.0213 79.7255C23.932 79.4996 23.8091 79.3193 23.6526 79.1846C23.4962 79.0499 23.3197 78.9826 23.1231 78.9826C22.8728 78.9826 22.6761 79.0716 22.5331 79.2498C22.3901 79.4279 22.265 79.7125 22.1577 80.1035L21.7555 81.3157C21.5857 81.8414 21.3533 82.2454 21.0583 82.5279C20.7589 82.8059 20.4014 82.9449 19.9858 82.9449C19.4673 82.9449 19.0517 82.7234 18.7389 82.2802C18.4261 81.837 18.2696 81.2549 18.2696 80.5336C18.2696 79.769 18.4305 79.1759 18.7523 78.7545C19.0741 78.3331 19.4763 78.1136 19.9589 78.0963L19.9589 79.0999C19.6774 79.139 19.4651 79.278 19.3221 79.517C19.1746 79.7559 19.1009 80.0948 19.1009 80.5336C19.1009 80.9551 19.1992 81.2853 19.3958 81.5242C19.588 81.7588 19.8025 81.8762 20.0394 81.8762C20.4818 81.8762 20.8081 81.5069 21.0181 80.7683L21.4471 79.53C21.6125 78.9956 21.8293 78.5872 22.0974 78.3048C22.3655 78.0181 22.7074 77.8747 23.1231 77.8747C23.4448 77.8747 23.7487 77.9768 24.0347 78.181C24.3208 78.3852 24.5532 78.6741 24.7319 79.0478C24.9107 79.4214 25.0001 79.8646 25.0001 80.3772Z" fill="#F5EFE1"/>
<path d="M25.0001 80.3772C25.0001 80.9811 24.9129 81.4851 24.7386 81.8892C24.5599 82.2932 24.3163 82.5995 24.0079 82.8081C23.6951 83.0166 23.3376 83.1274 22.9354 83.1405L22.9354 82.1629C23.342 82.1412 23.6482 81.9826 23.8537 81.6872C24.0549 81.3874 24.1554 80.9811 24.1554 80.4685C24.1554 80.1991 24.1107 79.9514 24.0213 79.7255C23.932 79.4996 23.8091 79.3193 23.6526 79.1846C23.4962 79.0499 23.3197 78.9826 23.1231 78.9826C22.8728 78.9826 22.6761 79.0716 22.5331 79.2498C22.3901 79.4279 22.265 79.7125 22.1577 80.1035L21.7555 81.3157C21.5857 81.8414 21.3533 82.2454 21.0583 82.5279C20.7589 82.8059 20.4014 82.9449 19.9858 82.9449C19.4673 82.9449 19.0517 82.7234 18.7389 82.2802C18.4261 81.837 18.2696 81.2549 18.2696 80.5336C18.2696 79.769 18.4305 79.1759 18.7523 78.7545C19.0741 78.3331 19.4763 78.1136 19.9589 78.0963L19.9589 79.0999C19.6774 79.139 19.4651 79.278 19.3221 79.517C19.1746 79.7559 19.1009 80.0948 19.1009 80.5336C19.1009 80.9551 19.1992 81.2853 19.3958 81.5242C19.588 81.7588 19.8025 81.8762 20.0394 81.8762C20.4818 81.8762 20.8081 81.5069 21.0181 80.7683L21.4471 79.53C21.6125 78.9956 21.8293 78.5872 22.0974 78.3048C22.3655 78.0181 22.7074 77.8747 23.1231 77.8747C23.4448 77.8747 23.7487 77.9768 24.0347 78.181C24.3208 78.3852 24.5532 78.6741 24.7319 79.0478C24.9107 79.4214 25.0001 79.8646 25.0001 80.3772Z" fill="black"/>
<path d="M25.0001 73.8551C25.0001 74.194 24.933 74.4981 24.799 74.7675C24.6649 75.0369 24.4638 75.2497 24.1956 75.4062C23.9275 75.5626 23.5923 75.6408 23.1901 75.6408L16.6474 75.6408L16.6474 74.6371L23.1633 74.6371C23.8247 74.6371 24.1554 74.3374 24.1554 73.7378C24.1554 73.5597 24.1353 73.388 24.0951 73.2229C24.0549 73.0535 23.9945 72.8645 23.9141 72.656L24.6649 72.5126C24.7632 72.7342 24.8436 72.9558 24.9062 73.1773C24.9688 73.3946 25.0001 73.6205 25.0001 73.8551ZM19.1545 76.6444L18.4305 76.6444L18.4305 72.669L19.1545 72.669L19.1545 76.6444Z" fill="#F5EFE1"/>
<path d="M25.0001 73.8551C25.0001 74.194 24.933 74.4981 24.799 74.7675C24.6649 75.0369 24.4638 75.2497 24.1956 75.4062C23.9275 75.5626 23.5923 75.6408 23.1901 75.6408L16.6474 75.6408L16.6474 74.6371L23.1633 74.6371C23.8247 74.6371 24.1554 74.3374 24.1554 73.7378C24.1554 73.5597 24.1353 73.388 24.0951 73.2229C24.0549 73.0535 23.9945 72.8645 23.9141 72.656L24.6649 72.5126C24.7632 72.7342 24.8436 72.9558 24.9062 73.1773C24.9688 73.3946 25.0001 73.6205 25.0001 73.8551ZM19.1545 76.6444L18.4305 76.6444L18.4305 72.669L19.1545 72.669L19.1545 76.6444Z" fill="black"/>
<path d="M24.8392 67.0125L23.4314 67.1429L20.6829 67.1429C20.1064 67.1429 19.693 67.2623 19.4428 67.5013C19.188 67.7403 19.0607 68.0987 19.0607 68.5766C19.0607 68.846 19.1009 69.0915 19.1813 69.313C19.2618 69.5303 19.3869 69.7041 19.5567 69.8344C19.7221 69.9604 19.9366 70.0234 20.2003 70.0234L20.2003 71.1574C19.7355 71.1574 19.3623 71.0466 19.0808 70.825C18.7948 70.6034 18.5892 70.2993 18.464 69.9126C18.3344 69.5216 18.2696 69.0762 18.2696 68.5766C18.2696 68.0987 18.3523 67.6751 18.5177 67.3058C18.683 66.9365 18.9467 66.6476 19.3087 66.439C19.6662 66.2305 20.1332 66.1262 20.7098 66.1262L24.8392 66.1262L24.8392 67.0125ZM25.0001 69.1371C25.0001 69.6497 24.9062 70.0734 24.7185 70.4079C24.5308 70.7424 24.2872 70.9923 23.9878 71.1574C23.6884 71.3225 23.3733 71.405 23.0426 71.405C22.6091 71.405 22.2561 71.3007 21.9834 71.0922C21.7108 70.8793 21.5119 70.5904 21.3868 70.2254C21.2572 69.8605 21.1924 69.4499 21.1924 68.9937C21.1924 68.6678 21.2259 68.342 21.293 68.0161C21.36 67.6859 21.4516 67.3644 21.5678 67.0516L22.2248 67.0516C22.1175 67.3123 22.0326 67.6077 21.97 67.9379C21.9075 68.2638 21.8762 68.5636 21.8762 68.8373C21.8762 69.2544 21.9656 69.6063 22.1443 69.8931C22.3186 70.1798 22.618 70.3232 23.0426 70.3232C23.3554 70.3232 23.6236 70.2146 23.847 69.9973C24.0705 69.7757 24.1822 69.4238 24.1822 68.9416C24.1822 68.6027 24.1018 68.2985 23.9409 68.0292C23.7755 67.7555 23.57 67.5404 23.3242 67.384C23.0784 67.2232 22.8326 67.1429 22.5868 67.1429L22.5868 66.8952C23.0158 66.8952 23.4135 66.9864 23.78 67.1689C24.1465 67.3471 24.4414 67.6034 24.6649 67.9379C24.8883 68.2725 25.0001 68.6722 25.0001 69.1371Z" fill="#F5EFE1"/>
<path d="M24.8392 67.0125L23.4314 67.1429L20.6829 67.1429C20.1064 67.1429 19.693 67.2623 19.4428 67.5013C19.188 67.7403 19.0607 68.0987 19.0607 68.5766C19.0607 68.846 19.1009 69.0915 19.1813 69.313C19.2618 69.5303 19.3869 69.7041 19.5567 69.8344C19.7221 69.9604 19.9366 70.0234 20.2003 70.0234L20.2003 71.1574C19.7355 71.1574 19.3623 71.0466 19.0808 70.825C18.7948 70.6034 18.5892 70.2993 18.464 69.9126C18.3344 69.5216 18.2696 69.0762 18.2696 68.5766C18.2696 68.0987 18.3523 67.6751 18.5177 67.3058C18.683 66.9365 18.9467 66.6476 19.3087 66.439C19.6662 66.2305 20.1332 66.1262 20.7098 66.1262L24.8392 66.1262L24.8392 67.0125ZM25.0001 69.1371C25.0001 69.6497 24.9062 70.0734 24.7185 70.4079C24.5308 70.7424 24.2872 70.9923 23.9878 71.1574C23.6884 71.3225 23.3733 71.405 23.0426 71.405C22.6091 71.405 22.2561 71.3007 21.9834 71.0922C21.7108 70.8793 21.5119 70.5904 21.3868 70.2254C21.2572 69.8605 21.1924 69.4499 21.1924 68.9937C21.1924 68.6678 21.2259 68.342 21.293 68.0161C21.36 67.6859 21.4516 67.3644 21.5678 67.0516L22.2248 67.0516C22.1175 67.3123 22.0326 67.6077 21.97 67.9379C21.9075 68.2638 21.8762 68.5636 21.8762 68.8373C21.8762 69.2544 21.9656 69.6063 22.1443 69.8931C22.3186 70.1798 22.618 70.3232 23.0426 70.3232C23.3554 70.3232 23.6236 70.2146 23.847 69.9973C24.0705 69.7757 24.1822 69.4238 24.1822 68.9416C24.1822 68.6027 24.1018 68.2985 23.9409 68.0292C23.7755 67.7555 23.57 67.5404 23.3242 67.384C23.0784 67.2232 22.8326 67.1429 22.5868 67.1429L22.5868 66.8952C23.0158 66.8952 23.4135 66.9864 23.78 67.1689C24.1465 67.3471 24.4414 67.6034 24.6649 67.9379C24.8883 68.2725 25.0001 68.6722 25.0001 69.1371Z" fill="black"/>
<path d="M25.0001 61.4629C25.0001 61.9668 24.8615 62.4295 24.5844 62.851C24.3029 63.2724 23.9096 63.6091 23.4046 63.8611C22.8951 64.1131 22.2963 64.2391 21.608 64.2391C20.9243 64.2391 20.3321 64.1153 19.8316 63.8676C19.331 63.62 18.9467 63.292 18.6786 62.8836C18.4059 62.4708 18.2696 62.019 18.2696 61.528C18.2696 61.0718 18.3836 60.6721 18.6115 60.3289C18.8394 59.9813 19.1679 59.7119 19.597 59.5208C20.026 59.3296 20.5444 59.234 21.1522 59.234L21.1522 59.625C20.7276 59.625 20.3701 59.7076 20.0796 59.8727C19.7891 60.0335 19.5701 60.2442 19.4227 60.5049C19.2707 60.7655 19.1947 61.0458 19.1947 61.3455C19.1947 61.6844 19.2931 61.9951 19.4897 62.2775C19.6819 62.5555 19.9589 62.7793 20.3209 62.9487C20.6785 63.1138 21.1075 63.1964 21.608 63.1964C22.1175 63.1964 22.5555 63.1138 22.9219 62.9487C23.2884 62.7793 23.57 62.5555 23.7666 62.2775C23.9632 61.9951 24.0616 61.6844 24.0616 61.3455C24.0616 61.0631 23.9856 60.7916 23.8336 60.5309C23.6817 60.2659 23.4605 60.0487 23.17 59.8792C22.875 59.7098 22.5197 59.625 22.1041 59.625L22.1041 59.234C22.7253 59.234 23.2527 59.334 23.6862 59.5338C24.1152 59.7293 24.4414 59.9965 24.6649 60.3354C24.8883 60.6699 25.0001 61.0458 25.0001 61.4629ZM24.8392 59.4556L23.3376 59.625L15.6954 59.625L15.6954 58.6084L24.8392 58.6084L24.8392 59.4556Z" fill="#F5EFE1"/>
<path d="M25.0001 61.4629C25.0001 61.9668 24.8615 62.4295 24.5844 62.851C24.3029 63.2724 23.9096 63.6091 23.4046 63.8611C22.8951 64.1131 22.2963 64.2391 21.608 64.2391C20.9243 64.2391 20.3321 64.1153 19.8316 63.8676C19.331 63.62 18.9467 63.292 18.6786 62.8836C18.4059 62.4708 18.2696 62.019 18.2696 61.528C18.2696 61.0718 18.3836 60.6721 18.6115 60.3289C18.8394 59.9813 19.1679 59.7119 19.597 59.5208C20.026 59.3296 20.5444 59.234 21.1522 59.234L21.1522 59.625C20.7276 59.625 20.3701 59.7076 20.0796 59.8727C19.7891 60.0335 19.5701 60.2442 19.4227 60.5049C19.2707 60.7655 19.1947 61.0458 19.1947 61.3455C19.1947 61.6844 19.2931 61.9951 19.4897 62.2775C19.6819 62.5555 19.9589 62.7793 20.3209 62.9487C20.6785 63.1138 21.1075 63.1964 21.608 63.1964C22.1175 63.1964 22.5555 63.1138 22.9219 62.9487C23.2884 62.7793 23.57 62.5555 23.7666 62.2775C23.9632 61.9951 24.0616 61.6844 24.0616 61.3455C24.0616 61.0631 23.9856 60.7916 23.8336 60.5309C23.6817 60.2659 23.4605 60.0487 23.17 59.8792C22.875 59.7098 22.5197 59.625 22.1041 59.625L22.1041 59.234C22.7253 59.234 23.2527 59.334 23.6862 59.5338C24.1152 59.7293 24.4414 59.9965 24.6649 60.3354C24.8883 60.6699 25.0001 61.0458 25.0001 61.4629ZM24.8392 59.4556L23.3376 59.625L15.6954 59.625L15.6954 58.6084L24.8392 58.6084L24.8392 59.4556Z" fill="black"/>
<path d="M25.0001 53.7105C25.0001 54.271 24.8727 54.7706 24.618 55.2095C24.3632 55.6439 23.9856 55.9872 23.485 56.2391C22.9845 56.4911 22.3678 56.6171 21.6348 56.6171C20.8975 56.6171 20.2807 56.4911 19.7847 56.2391C19.2841 55.9872 18.9065 55.6439 18.6517 55.2095C18.397 54.7706 18.2696 54.271 18.2696 53.7105C18.2696 53.1544 18.397 52.6591 18.6517 52.2247C18.9065 51.7858 19.2841 51.4426 19.7847 51.195C20.2807 50.943 20.8975 50.817 21.6348 50.817C22.3678 50.817 22.9845 50.943 23.485 51.195C23.9856 51.4426 24.3632 51.7858 24.618 52.2247C24.8727 52.6591 25.0001 53.1544 25.0001 53.7105ZM24.0884 53.7366C24.0884 53.3325 23.9901 52.9893 23.7934 52.7069C23.5923 52.4245 23.3085 52.2116 22.9421 52.0682C22.5756 51.9205 22.1399 51.8467 21.6348 51.8467C20.8706 51.8467 20.2695 52.0009 19.8316 52.3094C19.3891 52.6178 19.1679 53.0762 19.1679 53.6845C19.1679 54.0929 19.2685 54.4383 19.4696 54.7207C19.6662 54.9987 19.95 55.2116 20.3209 55.3593C20.6874 55.5027 21.1254 55.5744 21.6348 55.5744C22.3901 55.5744 22.989 55.4202 23.4314 55.1117C23.8694 54.7989 24.0884 54.3405 24.0884 53.7366Z" fill="#F5EFE1"/>
<path d="M25.0001 53.7105C25.0001 54.271 24.8727 54.7706 24.618 55.2095C24.3632 55.6439 23.9856 55.9872 23.485 56.2391C22.9845 56.4911 22.3678 56.6171 21.6348 56.6171C20.8975 56.6171 20.2807 56.4911 19.7847 56.2391C19.2841 55.9872 18.9065 55.6439 18.6517 55.2095C18.397 54.7706 18.2696 54.271 18.2696 53.7105C18.2696 53.1544 18.397 52.6591 18.6517 52.2247C18.9065 51.7858 19.2841 51.4426 19.7847 51.195C20.2807 50.943 20.8975 50.817 21.6348 50.817C22.3678 50.817 22.9845 50.943 23.485 51.195C23.9856 51.4426 24.3632 51.7858 24.618 52.2247C24.8727 52.6591 25.0001 53.1544 25.0001 53.7105ZM24.0884 53.7366C24.0884 53.3325 23.9901 52.9893 23.7934 52.7069C23.5923 52.4245 23.3085 52.2116 22.9421 52.0682C22.5756 51.9205 22.1399 51.8467 21.6348 51.8467C20.8706 51.8467 20.2695 52.0009 19.8316 52.3094C19.3891 52.6178 19.1679 53.0762 19.1679 53.6845C19.1679 54.0929 19.2685 54.4383 19.4696 54.7207C19.6662 54.9987 19.95 55.2116 20.3209 55.3593C20.6874 55.5027 21.1254 55.5744 21.6348 55.5744C22.3901 55.5744 22.989 55.4202 23.4314 55.1117C23.8694 54.7989 24.0884 54.3405 24.0884 53.7366Z" fill="black"/>
<path d="M25.0001 43.5807C25.0001 44.1195 24.8593 44.6017 24.5777 45.0275C24.2917 45.4489 23.8962 45.7835 23.3912 46.0311C22.8862 46.2744 22.3052 46.3961 21.6483 46.3961C20.9466 46.3961 20.3433 46.2744 19.8383 46.0311C19.3333 45.7878 18.9467 45.4555 18.6786 45.034C18.4059 44.6082 18.2696 44.1238 18.2696 43.5807C18.2696 43.1072 18.368 42.7031 18.5646 42.3686C18.7612 42.034 19.0271 41.7646 19.3623 41.5604C19.6975 41.3562 20.0774 41.215 20.5019 41.1368C20.922 41.0543 21.3578 41.0304 21.8091 41.0651L21.8091 45.5749L21.1656 45.5749L21.1656 41.7364L21.3667 42.0362C21.103 42.0231 20.8394 42.0384 20.5757 42.0818C20.312 42.1209 20.0707 42.1969 19.8517 42.3099C19.6282 42.4229 19.4495 42.5814 19.3154 42.7856C19.1813 42.9898 19.1143 43.2505 19.1143 43.5677C19.1143 43.9674 19.2193 44.3019 19.4294 44.5713C19.6394 44.8407 19.9165 45.0427 20.2606 45.1774C20.6003 45.3121 20.969 45.3794 21.3667 45.3794L21.7957 45.3794C22.2426 45.3794 22.6426 45.3142 22.9957 45.1839C23.3487 45.0492 23.6281 44.8494 23.8336 44.5843C24.0392 44.3193 24.142 43.9848 24.142 43.5807C24.142 43.1767 24.0414 42.8443 23.8403 42.5836C23.6392 42.3229 23.342 42.1644 22.9488 42.1079L22.9488 41.0521C23.3733 41.1173 23.7398 41.265 24.0482 41.4953C24.352 41.7255 24.5867 42.0188 24.752 42.3751C24.9174 42.7313 25.0001 43.1332 25.0001 43.5807Z" fill="#F5EFE1"/>
<path d="M25.0001 43.5807C25.0001 44.1195 24.8593 44.6017 24.5777 45.0275C24.2917 45.4489 23.8962 45.7835 23.3912 46.0311C22.8862 46.2744 22.3052 46.3961 21.6483 46.3961C20.9466 46.3961 20.3433 46.2744 19.8383 46.0311C19.3333 45.7878 18.9467 45.4555 18.6786 45.034C18.4059 44.6082 18.2696 44.1238 18.2696 43.5807C18.2696 43.1072 18.368 42.7031 18.5646 42.3686C18.7612 42.034 19.0271 41.7646 19.3623 41.5604C19.6975 41.3562 20.0774 41.215 20.5019 41.1368C20.922 41.0543 21.3578 41.0304 21.8091 41.0651L21.8091 45.5749L21.1656 45.5749L21.1656 41.7364L21.3667 42.0362C21.103 42.0231 20.8394 42.0384 20.5757 42.0818C20.312 42.1209 20.0707 42.1969 19.8517 42.3099C19.6282 42.4229 19.4495 42.5814 19.3154 42.7856C19.1813 42.9898 19.1143 43.2505 19.1143 43.5677C19.1143 43.9674 19.2193 44.3019 19.4294 44.5713C19.6394 44.8407 19.9165 45.0427 20.2606 45.1774C20.6003 45.3121 20.969 45.3794 21.3667 45.3794L21.7957 45.3794C22.2426 45.3794 22.6426 45.3142 22.9957 45.1839C23.3487 45.0492 23.6281 44.8494 23.8336 44.5843C24.0392 44.3193 24.142 43.9848 24.142 43.5807C24.142 43.1767 24.0414 42.8443 23.8403 42.5836C23.6392 42.3229 23.342 42.1644 22.9488 42.1079L22.9488 41.0521C23.3733 41.1173 23.7398 41.265 24.0482 41.4953C24.352 41.7255 24.5867 42.0188 24.752 42.3751C24.9174 42.7313 25.0001 43.1332 25.0001 43.5807Z" fill="black"/>
<path d="M24.8392 34.6176L21.0717 34.6176C20.4595 34.6176 19.9947 34.7609 19.6774 35.0477C19.3556 35.3301 19.1947 35.7168 19.1947 36.2077C19.1947 36.5814 19.2998 36.905 19.5098 37.1787C19.7199 37.4525 20.0215 37.6632 20.4148 37.8109C20.8036 37.9586 21.2684 38.0325 21.8091 38.0325L21.8091 38.4235C21.0628 38.4235 20.426 38.3279 19.8986 38.1367C19.3713 37.9456 18.969 37.6675 18.692 37.3026C18.4104 36.9333 18.2696 36.4858 18.2696 35.9601C18.2696 35.4691 18.3836 35.0498 18.6115 34.7023C18.835 34.3504 19.1567 34.081 19.5768 33.8942C19.9969 33.7073 20.4952 33.6139 21.0717 33.6139L24.8392 33.6139L24.8392 34.6176ZM24.8392 39.0491L18.4305 39.0491L18.4305 38.1759L19.9053 38.0325L24.8392 38.0325L24.8392 39.0491Z" fill="#F5EFE1"/>
<path d="M24.8392 34.6176L21.0717 34.6176C20.4595 34.6176 19.9947 34.7609 19.6774 35.0477C19.3556 35.3301 19.1947 35.7168 19.1947 36.2077C19.1947 36.5814 19.2998 36.905 19.5098 37.1787C19.7199 37.4525 20.0215 37.6632 20.4148 37.8109C20.8036 37.9586 21.2684 38.0325 21.8091 38.0325L21.8091 38.4235C21.0628 38.4235 20.426 38.3279 19.8986 38.1367C19.3713 37.9456 18.969 37.6675 18.692 37.3026C18.4104 36.9333 18.2696 36.4858 18.2696 35.9601C18.2696 35.4691 18.3836 35.0498 18.6115 34.7023C18.835 34.3504 19.1567 34.081 19.5768 33.8942C19.9969 33.7073 20.4952 33.6139 21.0717 33.6139L24.8392 33.6139L24.8392 34.6176ZM24.8392 39.0491L18.4305 39.0491L18.4305 38.1759L19.9053 38.0325L24.8392 38.0325L24.8392 39.0491Z" fill="black"/>
<path d="M25.0001 25.2484C25.0001 25.9696 24.8146 26.5909 24.4437 27.1123C24.0683 27.6336 23.5498 28.0355 22.8884 28.3179C22.2225 28.6003 21.4516 28.7415 20.5757 28.7415C19.6416 28.7415 18.8551 28.5895 18.216 28.2853C17.5769 27.9769 17.0943 27.5598 16.768 27.0341C16.4373 26.504 16.272 25.9088 16.272 25.2484C16.272 24.3751 16.4976 23.6734 16.949 23.1434C17.3959 22.609 17.9791 22.2419 18.6987 22.042L18.9266 23.1369C18.4037 23.3063 17.9881 23.5779 17.6797 23.9515C17.3669 24.3208 17.2105 24.7531 17.2105 25.2484C17.2105 25.6785 17.3378 26.0761 17.5926 26.441C17.8428 26.8016 18.2182 27.0927 18.7188 27.3143C19.2193 27.5359 19.8383 27.6467 20.5757 27.6467C21.246 27.6467 21.8427 27.5598 22.3655 27.386C22.8884 27.2079 23.2996 26.9428 23.599 26.5909C23.8984 26.2346 24.0481 25.7871 24.0481 25.2484C24.0481 24.601 23.8694 24.0884 23.5119 23.7104C23.1543 23.328 22.6851 23.1369 22.1041 23.1369L22.1041 22.029C22.7074 22.029 23.2258 22.1637 23.6593 22.433C24.0884 22.7024 24.4191 23.0804 24.6515 23.567C24.8839 24.0493 25.0001 24.6097 25.0001 25.2484Z" fill="#F5EFE1"/>
<path d="M25.0001 25.2484C25.0001 25.9696 24.8146 26.5909 24.4437 27.1123C24.0683 27.6336 23.5498 28.0355 22.8884 28.3179C22.2225 28.6003 21.4516 28.7415 20.5757 28.7415C19.6416 28.7415 18.8551 28.5895 18.216 28.2853C17.5769 27.9769 17.0943 27.5598 16.768 27.0341C16.4373 26.504 16.272 25.9088 16.272 25.2484C16.272 24.3751 16.4976 23.6734 16.949 23.1434C17.3959 22.609 17.9791 22.2419 18.6987 22.042L18.9266 23.1369C18.4037 23.3063 17.9881 23.5779 17.6797 23.9515C17.3669 24.3208 17.2105 24.7531 17.2105 25.2484C17.2105 25.6785 17.3378 26.0761 17.5926 26.441C17.8428 26.8016 18.2182 27.0927 18.7188 27.3143C19.2193 27.5359 19.8383 27.6467 20.5757 27.6467C21.246 27.6467 21.8427 27.5598 22.3655 27.386C22.8884 27.2079 23.2996 26.9428 23.599 26.5909C23.8984 26.2346 24.0481 25.7871 24.0481 25.2484C24.0481 24.601 23.8694 24.0884 23.5119 23.7104C23.1543 23.328 22.6851 23.1369 22.1041 23.1369L22.1041 22.029C22.7074 22.029 23.2258 22.1637 23.6593 22.433C24.0884 22.7024 24.4191 23.0804 24.6515 23.567C24.8839 24.0493 25.0001 24.6097 25.0001 25.2484Z" fill="black"/>
<path d="M24.8392 15.6647L21.0717 15.6647C20.4595 15.6647 19.9947 15.8081 19.6774 16.0948C19.3556 16.3772 19.1947 16.7639 19.1947 17.2548C19.1947 17.6285 19.2998 17.9522 19.5098 18.2259C19.7199 18.4996 20.0215 18.7103 20.4148 18.858C20.8036 19.0058 21.2684 19.0796 21.8091 19.0796L21.8091 19.4706C21.0628 19.4706 20.426 19.3751 19.8986 19.1839C19.3713 18.9927 18.969 18.7147 18.692 18.3497C18.4104 17.9804 18.2696 17.5329 18.2696 17.0072C18.2696 16.5162 18.3836 16.097 18.6115 15.7494C18.835 15.3975 19.1567 15.1281 19.5768 14.9413C19.9969 14.7545 20.4952 14.6611 21.0717 14.6611L24.8392 14.6611L24.8392 15.6647ZM24.8392 20.0963L15.6954 20.0963L15.6954 19.0796L24.8392 19.0796L24.8392 20.0963Z" fill="#F5EFE1"/>
<path d="M24.8392 15.6647L21.0717 15.6647C20.4595 15.6647 19.9947 15.8081 19.6774 16.0948C19.3556 16.3772 19.1947 16.7639 19.1947 17.2548C19.1947 17.6285 19.2998 17.9522 19.5098 18.2259C19.7199 18.4996 20.0215 18.7103 20.4148 18.858C20.8036 19.0058 21.2684 19.0796 21.8091 19.0796L21.8091 19.4706C21.0628 19.4706 20.426 19.3751 19.8986 19.1839C19.3713 18.9927 18.969 18.7147 18.692 18.3497C18.4104 17.9804 18.2696 17.5329 18.2696 17.0072C18.2696 16.5162 18.3836 16.097 18.6115 15.7494C18.835 15.3975 19.1567 15.1281 19.5768 14.9413C19.9969 14.7545 20.4952 14.6611 21.0717 14.6611L24.8392 14.6611L24.8392 15.6647ZM24.8392 20.0963L15.6954 20.0963L15.6954 19.0796L24.8392 19.0796L24.8392 20.0963Z" fill="black"/>
<path d="M16.9155 11.6565C16.9155 11.8651 16.8552 12.0301 16.7345 12.1518C16.6094 12.2734 16.4463 12.3343 16.2451 12.3343C16.0485 12.3343 15.8921 12.2734 15.7759 12.1518C15.6597 12.0301 15.6016 11.8651 15.6016 11.6565C15.6016 11.448 15.6597 11.2829 15.7759 11.1612C15.8921 11.0396 16.0485 10.9787 16.2451 10.9787C16.4463 10.9787 16.6094 11.0396 16.7345 11.1612C16.8552 11.2829 16.9155 11.448 16.9155 11.6565ZM24.8392 12.1648L18.4171 12.1648L18.4171 11.1482L24.8392 11.1482L24.8392 12.1648Z" fill="#F5EFE1"/>
<path d="M16.9155 11.6565C16.9155 11.8651 16.8552 12.0301 16.7345 12.1518C16.6094 12.2734 16.4463 12.3343 16.2451 12.3343C16.0485 12.3343 15.8921 12.2734 15.7759 12.1518C15.6597 12.0301 15.6016 11.8651 15.6016 11.6565C15.6016 11.448 15.6597 11.2829 15.7759 11.1612C15.8921 11.0396 16.0485 10.9787 16.2451 10.9787C16.4463 10.9787 16.6094 11.0396 16.7345 11.1612C16.8552 11.2829 16.9155 11.448 16.9155 11.6565ZM24.8392 12.1648L18.4171 12.1648L18.4171 11.1482L24.8392 11.1482L24.8392 12.1648Z" fill="black"/>
<path d="M24.8392 8.34778L15.6954 8.34779L15.6954 7.33113L24.8392 7.33113L24.8392 8.34778Z" fill="#F5EFE1"/>
<path d="M24.8392 8.34778L15.6954 8.34779L15.6954 7.33113L24.8392 7.33113L24.8392 8.34778Z" fill="black"/>
<path d="M25.0001 2.53103C25.0001 3.06977 24.8593 3.55203 24.5777 3.97781C24.2917 4.39925 23.8962 4.73379 23.3912 4.98143C22.8862 5.22473 22.3052 5.34638 21.6483 5.34638C20.9466 5.34638 20.3433 5.22473 19.8383 4.98143C19.3333 4.73813 18.9467 4.40576 18.6786 3.98433C18.4059 3.55855 18.2696 3.07411 18.2696 2.53103C18.2696 2.05746 18.368 1.6534 18.5646 1.31885C18.7612 0.984313 19.0271 0.714942 19.3623 0.510741C19.6975 0.306541 20.0774 0.165343 20.5019 0.0871344C20.922 0.00458435 21.3578 -0.0193109 21.8091 0.0154486L21.8091 4.52524L21.1656 4.52524L21.1656 0.686698L21.3667 0.986487C21.103 0.973449 20.8394 0.988654 20.5757 1.0321C20.312 1.0712 20.0707 1.14724 19.8517 1.2602C19.6282 1.37317 19.4495 1.53175 19.3154 1.73595C19.1813 1.94015 19.1143 2.20083 19.1143 2.51799C19.1143 2.9177 19.2193 3.25224 19.4294 3.52161C19.6394 3.79098 19.9165 3.99301 20.2606 4.12769C20.6003 4.26238 20.969 4.32973 21.3667 4.32973L21.7957 4.32973C22.2426 4.32973 22.6426 4.26455 22.9957 4.13421C23.3487 3.99953 23.6281 3.79967 23.8336 3.53465C24.0392 3.26962 24.142 2.93508 24.142 2.53103C24.142 2.12697 24.0414 1.79459 23.8403 1.53391C23.6392 1.27323 23.342 1.11465 22.9488 1.05817L22.9488 0.00240989C23.3733 0.0675802 23.7398 0.2153 24.0481 0.445571C24.352 0.675841 24.5867 0.969108 24.752 1.32537C24.9174 1.68163 25.0001 2.08353 25.0001 2.53103Z" fill="#F5EFE1"/>
<path d="M25.0001 2.53103C25.0001 3.06977 24.8593 3.55203 24.5777 3.97781C24.2917 4.39925 23.8962 4.73379 23.3912 4.98143C22.8862 5.22473 22.3052 5.34638 21.6483 5.34638C20.9466 5.34638 20.3433 5.22473 19.8383 4.98143C19.3333 4.73813 18.9467 4.40576 18.6786 3.98433C18.4059 3.55855 18.2696 3.07411 18.2696 2.53103C18.2696 2.05746 18.368 1.6534 18.5646 1.31885C18.7612 0.984313 19.0271 0.714942 19.3623 0.510741C19.6975 0.306541 20.0774 0.165343 20.5019 0.0871344C20.922 0.00458435 21.3578 -0.0193109 21.8091 0.0154486L21.8091 4.52524L21.1656 4.52524L21.1656 0.686698L21.3667 0.986487C21.103 0.973449 20.8394 0.988654 20.5757 1.0321C20.312 1.0712 20.0707 1.14724 19.8517 1.2602C19.6282 1.37317 19.4495 1.53175 19.3154 1.73595C19.1813 1.94015 19.1143 2.20083 19.1143 2.51799C19.1143 2.9177 19.2193 3.25224 19.4294 3.52161C19.6394 3.79098 19.9165 3.99301 20.2606 4.12769C20.6003 4.26238 20.969 4.32973 21.3667 4.32973L21.7957 4.32973C22.2426 4.32973 22.6426 4.26455 22.9957 4.13421C23.3487 3.99953 23.6281 3.79967 23.8336 3.53465C24.0392 3.26962 24.142 2.93508 24.142 2.53103C24.142 2.12697 24.0414 1.79459 23.8403 1.53391C23.6392 1.27323 23.342 1.11465 22.9488 1.05817L22.9488 0.00240989C23.3733 0.0675802 23.7398 0.2153 24.0481 0.445571C24.352 0.675841 24.5867 0.969108 24.752 1.32537C24.9174 1.68163 25.0001 2.08353 25.0001 2.53103Z" fill="black"/>
<path d="M24.0001 148.851C24.0001 150.722 23.6924 152.334 23.077 153.685C22.4502 155.025 21.5499 156.065 20.3761 156.804C19.2023 157.544 17.7892 157.942 16.1368 158L16.1368 152.317C17.1169 152.317 17.8462 151.987 18.3248 151.329C18.7921 150.67 19.0257 149.844 19.0257 148.851C19.0257 147.892 18.6952 147.066 18.0343 146.373C17.3733 145.669 16.5642 145.316 15.6069 145.316C13.8291 145.316 12.9402 146.593 12.9402 149.146L12.9402 157.099L0.512883 155.955L0.512882 140.984L5.53852 140.984L5.53852 151.502L4.11972 150.445L9.77784 151.034L9.33339 151.381C9.20804 150.826 9.11117 150.139 9.0428 149.319C8.96302 148.487 8.92314 147.8 8.92314 147.257C8.92314 144.97 9.51573 143.133 10.7009 141.747C11.8861 140.361 13.5214 139.667 15.6069 139.667C17.1568 139.667 18.5699 140.054 19.8462 140.828C21.1112 141.602 22.1197 142.677 22.8719 144.051C23.624 145.426 24.0001 147.026 24.0001 148.851Z" fill="#F5EFE1"/>
<path d="M24.0001 148.851C24.0001 150.722 23.6924 152.334 23.077 153.685C22.4502 155.025 21.5499 156.065 20.3761 156.804C19.2023 157.544 17.7892 157.942 16.1368 158L16.1368 152.317C17.1169 152.317 17.8462 151.987 18.3248 151.329C18.7921 150.67 19.0257 149.844 19.0257 148.851C19.0257 147.892 18.6952 147.066 18.0343 146.373C17.3733 145.669 16.5642 145.316 15.6069 145.316C13.8291 145.316 12.9402 146.593 12.9402 149.146L12.9402 157.099L0.512883 155.955L0.512882 140.984L5.53852 140.984L5.53852 151.502L4.11972 150.445L9.77784 151.034L9.33339 151.381C9.20804 150.826 9.11117 150.139 9.0428 149.319C8.96302 148.487 8.92314 147.8 8.92314 147.257C8.92314 144.97 9.51573 143.133 10.7009 141.747C11.8861 140.361 13.5214 139.667 15.6069 139.667C17.1568 139.667 18.5699 140.054 19.8462 140.828C21.1112 141.602 22.1197 142.677 22.8719 144.051C23.624 145.426 24.0001 147.026 24.0001 148.851Z" fill="black"/>
<path d="M24.0001 127.154C24.0001 129.141 23.567 130.908 22.7009 132.456C21.8348 133.993 20.5186 135.2 18.7522 136.078C16.9744 136.944 14.7294 137.377 12.0172 137.377C9.27072 137.377 7.01431 136.944 5.24792 136.078C3.47015 135.2 2.15391 133.993 1.29921 132.456C0.433109 130.908 5.97737e-05 129.141 5.96868e-05 127.154C5.9601e-05 125.19 0.433109 123.446 1.29921 121.921C2.15391 120.396 3.47014 119.195 5.24792 118.317C7.01431 117.439 9.27072 117 12.0172 117C14.7294 117 16.9744 117.439 18.7522 118.317C20.5186 119.195 21.8348 120.396 22.7009 121.921C23.567 123.446 24.0001 125.19 24.0001 127.154ZM19.0257 127.154C19.0257 125.814 18.4388 124.74 17.265 123.931C16.0798 123.122 14.3305 122.718 12.0172 122.718C9.70376 122.718 7.94878 123.122 6.7522 123.931C5.54422 124.74 4.94023 125.814 4.94023 127.154C4.94023 128.552 5.54422 129.655 6.7522 130.464C7.94878 131.261 9.70376 131.659 12.0172 131.659C14.3305 131.659 16.0798 131.261 17.265 130.464C18.4388 129.655 19.0257 128.552 19.0257 127.154Z" fill="#F5EFE1"/>
<path d="M24.0001 127.154C24.0001 129.141 23.567 130.908 22.7009 132.456C21.8348 133.993 20.5186 135.2 18.7522 136.078C16.9744 136.944 14.7294 137.377 12.0172 137.377C9.27072 137.377 7.01431 136.944 5.24792 136.078C3.47015 135.2 2.15391 133.993 1.29921 132.456C0.433109 130.908 5.97737e-05 129.141 5.96868e-05 127.154C5.9601e-05 125.19 0.433109 123.446 1.29921 121.921C2.15391 120.396 3.47014 119.195 5.24792 118.317C7.01431 117.439 9.27072 117 12.0172 117C14.7294 117 16.9744 117.439 18.7522 118.317C20.5186 119.195 21.8348 120.396 22.7009 121.921C23.567 123.446 24.0001 125.19 24.0001 127.154ZM19.0257 127.154C19.0257 125.814 18.4388 124.74 17.265 123.931C16.0798 123.122 14.3305 122.718 12.0172 122.718C9.70376 122.718 7.94878 123.122 6.7522 123.931C5.54422 124.74 4.94023 125.814 4.94023 127.154C4.94023 128.552 5.54422 129.655 6.7522 130.464C7.94878 131.261 9.70376 131.659 12.0172 131.659C14.3305 131.659 16.0798 131.261 17.265 130.464C18.4388 129.655 19.0257 128.552 19.0257 127.154Z" fill="black"/>
</svg>
