<svg width="21" height="22" viewBox="0 0 21 22" fill="none" xmlns="http://www.w3.org/2000/svg">
<path d="M10.1273 5.20722C7.25409 5.20722 4.93657 7.65403 4.93657 10.6875C4.93657 13.721 7.25409 16.1678 10.1273 16.1678C13.0004 16.1678 15.3179 13.721 15.3179 10.6875C15.3179 7.65403 13.0004 5.20722 10.1273 5.20722ZM10.1273 14.2504C8.27054 14.2504 6.75263 12.6526 6.75263 10.6875C6.75263 8.72242 8.26602 7.1246 10.1273 7.1246C11.9885 7.1246 13.5019 8.72242 13.5019 10.6875C13.5019 12.6526 11.984 14.2504 10.1273 14.2504V14.2504ZM16.741 4.98305C16.741 5.69372 16.1989 6.2613 15.5303 6.2613C14.8572 6.2613 14.3196 5.68895 14.3196 4.98305C14.3196 4.27715 14.8617 3.70479 15.5303 3.70479C16.1989 3.70479 16.741 4.27715 16.741 4.98305ZM20.1788 6.28038C20.1021 4.56809 19.7316 3.05136 18.5435 1.80172C17.3599 0.552082 15.9233 0.160974 14.3015 0.0751213C12.63 -0.0250404 7.62001 -0.0250404 5.94851 0.0751213C4.33122 0.156205 2.89463 0.547312 1.70651 1.79695C0.518391 3.04659 0.152468 4.56332 0.0711517 6.27561C-0.0237172 8.04037 -0.0237172 13.3299 0.0711517 15.0946C0.14795 16.8069 0.518391 18.3236 1.70651 19.5733C2.89463 20.8229 4.3267 21.214 5.94851 21.2999C7.62001 21.4 12.63 21.4 14.3015 21.2999C15.9233 21.2188 17.3599 20.8277 18.5435 19.5733C19.7271 18.3236 20.0975 16.8069 20.1788 15.0946C20.2737 13.3299 20.2737 8.04514 20.1788 6.28038V6.28038ZM18.0195 16.9882C17.6671 17.923 16.9849 18.6432 16.095 19.02C14.7623 19.578 11.6 19.4493 10.1273 19.4493C8.65453 19.4493 5.48772 19.5733 4.15955 19.02C3.27411 18.648 2.59195 17.9278 2.23507 16.9882C1.70651 15.5811 1.82849 12.2424 1.82849 10.6875C1.82849 9.13261 1.71103 5.78911 2.23507 4.38685C2.58744 3.452 3.26959 2.73179 4.15955 2.35499C5.49223 1.79695 8.65453 1.92573 10.1273 1.92573C11.6 1.92573 14.7668 1.80172 16.095 2.35499C16.9804 2.72702 17.6626 3.44723 18.0195 4.38685C18.548 5.79388 18.426 9.13261 18.426 10.6875C18.426 12.2424 18.548 15.5859 18.0195 16.9882Z" fill="#F5EFE1"/>
</svg>
