<svg width="150" height="44" viewBox="0 0 150 44" fill="none" xmlns="http://www.w3.org/2000/svg">
<path d="M18.967 3.16889C19.1341 3.31441 19.3255 3.42928 19.5326 3.50823C19.7685 3.59136 20.0178 3.62972 20.2678 3.62134C20.7536 3.65125 21.2317 3.48871 21.5986 3.16889C21.9071 2.85014 22.0796 2.42392 22.0796 1.98033C22.0796 1.53674 21.9071 1.11053 21.5986 0.791773C21.2876 0.480715 20.8351 0.339324 20.2678 0.339324C20.0178 0.330943 19.7685 0.369304 19.5326 0.452436C19.3255 0.53138 19.1341 0.646256 18.967 0.791773C18.7991 0.932302 18.6721 1.11545 18.5994 1.32198C18.5064 1.53617 18.4583 1.76715 18.458 2.00066C18.4639 2.23412 18.5118 2.46461 18.5994 2.68109C18.6861 2.86782 18.8114 3.03407 18.967 3.16889Z" fill="#F5EFE1"/>
<path d="M25.1065 14.6851H21.8245V5.09354H15.2305V7.64032H18.6839V14.6851H15.2305V17.2036H25.1065V14.6851Z" fill="#F5EFE1"/>
<path d="M29.4651 16.2476C29.8307 16.67 30.2987 16.9913 30.8242 17.1807C31.3771 17.3797 31.9617 17.4756 32.5492 17.4635C33.2159 17.4696 33.8716 17.2936 34.4456 16.9545C35.0353 16.5984 35.5382 16.1154 35.9178 15.5406L36.0945 17.239H38.9223V5.09189H35.7764V13.6106C35.5848 14.0124 35.2769 14.3474 34.8927 14.5721C34.431 14.8132 33.9145 14.9301 33.394 14.9114C33.0768 14.9146 32.7611 14.8669 32.459 14.77C32.2089 14.6892 31.991 14.5307 31.8369 14.3176C31.6522 14.0797 31.535 13.7964 31.4976 13.4975C31.4113 13.088 31.3733 12.6698 31.3845 12.2515V5.09189H28.2704V12.2798C28.259 13.0737 28.3638 13.865 28.5814 14.6286C28.7595 15.2226 29.0606 15.7723 29.4651 16.2422" fill="#F5EFE1"/>
<path d="M42.908 15.7031C43.3032 16.2372 43.816 16.6732 44.4067 16.9774C45.0198 17.289 45.7003 17.4444 46.3879 17.4298C47.0051 17.4394 47.616 17.3038 48.1712 17.0339C48.6971 16.7658 49.1603 16.3893 49.5303 15.9293L49.707 17.2036H52.5013V0H49.3606V6.17344C49.008 5.76668 48.5739 5.43852 48.0864 5.21022C47.5614 4.97566 46.9911 4.85979 46.4162 4.87088C45.719 4.85285 45.0283 5.00897 44.4067 5.3251C43.8155 5.62772 43.3025 6.0633 42.908 6.59761C42.4649 7.17382 42.1465 7.83587 41.973 8.54172C41.7496 9.36206 41.6448 10.2102 41.662 11.0602V11.2988C41.6608 12.1293 41.7653 12.9566 41.973 13.7608C42.1583 14.4623 42.4756 15.1222 42.908 15.7049V15.7031ZM44.746 11.0655C44.7479 10.5808 44.7958 10.0973 44.8892 9.62158C44.9612 9.21316 45.1048 8.82067 45.3133 8.46218C45.4994 8.13939 45.7615 7.86696 46.0769 7.66863C46.4187 7.46727 46.8116 7.36906 47.208 7.38585C47.6749 7.36945 48.1367 7.48721 48.5388 7.72519C48.8979 7.97054 49.1901 8.30162 49.3889 8.68841V13.6123C49.1929 14.0006 48.9001 14.3317 48.5388 14.5738C48.1367 14.8117 47.6749 14.9295 47.208 14.9131C46.8115 14.9308 46.4184 14.8325 46.0769 14.6303C45.769 14.4355 45.5082 14.1747 45.3133 13.8668C45.1048 13.5178 44.9611 13.134 44.8892 12.7339C44.7944 12.2686 44.7464 11.7949 44.746 11.32V11.0655Z" fill="#F5EFE1"/>
<path d="M57.9625 17.1755C58.5096 17.3609 59.0832 17.4564 59.6609 17.4583C60.0223 17.4641 60.3832 17.4261 60.7355 17.3451C61.0439 17.2719 61.3468 17.1775 61.6421 17.0624C61.9054 16.9551 62.1527 16.8124 62.3774 16.6382C62.5941 16.4837 62.7932 16.3059 62.9712 16.108C63.0017 16.3188 63.049 16.5268 63.1126 16.7301C63.1564 16.9076 63.2229 17.0787 63.3105 17.2391H66.4812V17.0412C66.304 16.6933 66.1795 16.321 66.1118 15.9366C66.0236 15.404 65.9857 14.8643 65.9987 14.3247V9.11095C66.0085 8.46644 65.8732 7.82798 65.6028 7.24284C65.3582 6.71889 64.9894 6.26264 64.5283 5.91377C64.035 5.55003 63.4781 5.28151 62.8864 5.12199C62.2229 4.93639 61.5375 4.84069 60.8486 4.83744C60.1106 4.83211 59.3761 4.93756 58.6694 5.15027C58.0832 5.32831 57.5362 5.6162 57.0576 5.99861C56.6437 6.32817 56.3056 6.74286 56.0661 7.21456C55.8409 7.67254 55.7247 8.17643 55.7267 8.68678H58.8461C58.838 8.48349 58.8714 8.28067 58.9443 8.09073C59.0172 7.9008 59.1282 7.72775 59.2703 7.58217C59.5531 7.29939 60.0338 7.18628 60.6559 7.18628C61.3629 7.18628 61.9302 7.36302 62.2978 7.69529C62.4864 7.87218 62.6346 8.08773 62.7322 8.32718C62.8298 8.56663 62.8746 8.82433 62.8634 9.08267V9.78962H61.1367C59.242 9.78962 57.8264 10.129 56.8649 10.8377C55.9035 11.5464 55.421 12.5344 55.421 13.8086C55.4177 14.303 55.5225 14.7921 55.728 15.2418C55.9334 15.6914 56.2346 16.0908 56.6104 16.412C57.0087 16.7527 57.4698 17.012 57.9678 17.1755H57.9625ZM58.7313 12.8171C58.8424 12.5835 59.0078 12.3799 59.2138 12.2233C59.4673 12.036 59.7557 11.9014 60.0621 11.8274C60.4673 11.7309 60.8827 11.6835 61.2993 11.686H62.8899V13.7733C62.7921 13.9426 62.668 14.0953 62.5223 14.2257C62.3504 14.38 62.1605 14.5129 61.9567 14.6216C61.7255 14.7499 61.4774 14.8451 61.2197 14.9044C60.9325 14.9861 60.6346 15.0243 60.336 15.0175C59.7422 15.0175 59.2897 14.8761 59.007 14.5933C58.8633 14.4596 58.7489 14.2976 58.6707 14.1176C58.5926 13.9376 58.5524 13.7433 58.5528 13.5471C58.554 13.291 58.6145 13.0388 58.7295 12.8101" fill="#F5EFE1"/>
<path d="M71.9423 16.9774C72.5553 17.2894 73.2359 17.4448 73.9236 17.4298C74.5408 17.439 75.1515 17.3034 75.7068 17.0339C76.2325 16.7662 76.6952 16.3897 77.0642 15.9293L77.2409 17.2036H80.0422V0H76.8945V6.17344C76.5426 5.7659 76.1083 5.43761 75.6202 5.21022C75.0958 4.97585 74.5261 4.85999 73.9518 4.87088C73.2546 4.85248 72.5639 5.00861 71.9423 5.3251C71.3506 5.62771 70.837 6.06326 70.4418 6.59761C69.9987 7.17353 69.6808 7.83573 69.5087 8.54172C69.2852 9.36206 69.1805 10.2102 69.1976 11.0602V11.2988C69.1965 12.1293 69.301 12.9566 69.5087 13.7608C69.7106 14.4558 70.0259 15.1126 70.4418 15.7049C70.8444 16.2328 71.3562 16.6675 71.9423 16.9792V16.9774ZM72.3099 11.0655C72.3121 10.5809 72.3594 10.0975 72.4513 9.62158C72.5234 9.21316 72.667 8.82067 72.8755 8.46218C73.0624 8.13948 73.3251 7.86712 73.6408 7.66863C73.9826 7.46708 74.3755 7.36886 74.7719 7.38585C75.2388 7.36965 75.7006 7.4874 76.1027 7.72519C76.4617 7.9702 76.7534 8.30139 76.9511 8.68841V13.6123C76.7558 14.0005 76.4636 14.3317 76.1027 14.5738C75.7006 14.8116 75.2388 14.9293 74.7719 14.9131C74.3754 14.931 73.9822 14.8327 73.6408 14.6303C73.3325 14.4353 73.0712 14.1746 72.8755 13.8668C72.667 13.5178 72.5233 13.134 72.4513 12.7339C72.358 12.2684 72.3106 11.7948 72.3099 11.32V11.0655Z" fill="#F5EFE1"/>
<path d="M93.5624 14.3176V9.11091C93.5711 8.4665 93.4359 7.82827 93.1665 7.2428C92.9219 6.71835 92.5523 6.26197 92.0901 5.91373C91.5975 5.54997 91.0413 5.28144 90.45 5.12195C89.7865 4.9366 89.1011 4.8409 88.4122 4.8374C87.6766 4.83264 86.9445 4.93809 86.2401 5.15023C85.6534 5.32826 85.1058 5.61615 84.6265 5.99857C84.2132 6.32816 83.8756 6.74287 83.6368 7.21452C83.4116 7.6725 83.2954 8.17639 83.2974 8.68674H86.4098C86.4016 8.48371 86.4349 8.28113 86.5079 8.09148C86.5808 7.90182 86.6918 7.72909 86.834 7.5839C87.1167 7.29936 87.5992 7.18624 88.2214 7.18624C88.9283 7.18624 89.4939 7.36298 89.8632 7.69525C90.0518 7.87214 90.2 8.08769 90.2976 8.32714C90.3952 8.56659 90.44 8.8243 90.4288 9.08264V9.78959H88.7021C86.8057 9.78959 85.3918 10.1307 84.4286 10.8376C83.4653 11.5446 82.9864 12.5343 82.9864 13.8086C82.9833 14.3028 83.088 14.7917 83.2931 15.2413C83.4982 15.6909 83.7988 16.0904 84.1741 16.4119C84.5724 16.7382 85.0222 16.9962 85.5049 17.1754C86.052 17.3611 86.6256 17.4566 87.2033 17.4582C87.5648 17.4641 87.9256 17.4261 88.2779 17.3451C88.5857 17.2719 88.8881 17.1774 89.1828 17.0623C89.446 16.9551 89.6934 16.8124 89.918 16.6382C90.1357 16.4841 90.3355 16.3063 90.5136 16.1079C90.5442 16.3187 90.5915 16.5268 90.655 16.7301C90.6988 16.9076 90.7653 17.0786 90.853 17.2391H94.0166V17.0411C93.8393 16.6935 93.7154 16.3211 93.649 15.9365C93.5862 15.4016 93.5579 14.8632 93.5641 14.3247L93.5624 14.3176ZM90.4235 13.7591C90.3257 13.9284 90.2016 14.0812 90.0559 14.2116C89.8834 14.3658 89.6929 14.4988 89.4886 14.6074C89.2578 14.7354 89.0103 14.8306 88.7533 14.8902C88.4661 14.9719 88.1682 15.0101 87.8696 15.0033C87.274 15.0033 86.8216 14.8619 86.5388 14.5792C86.3958 14.4451 86.2818 14.283 86.204 14.103C86.1261 13.923 86.0861 13.729 86.0864 13.5329C86.0842 13.2674 86.1448 13.0052 86.2631 12.7676C86.3727 12.5335 86.5377 12.3297 86.7438 12.1738C86.9978 11.9861 87.2869 11.8515 87.5939 11.7779C87.9992 11.6814 88.4145 11.6339 88.8311 11.6365H90.4217L90.4235 13.7591Z" fill="#F5EFE1"/>
<path d="M100.185 8.60194C100.405 8.2336 100.716 7.92898 101.09 7.71825C101.505 7.49016 101.976 7.38244 102.449 7.40719C102.773 7.39778 103.097 7.43589 103.41 7.5203C103.679 7.59055 103.93 7.71572 104.147 7.88792C104.367 8.08426 104.524 8.34042 104.6 8.62491C104.726 9.00777 104.786 9.4095 104.777 9.81259V17.2267H107.889V9.76133C107.903 9.0044 107.798 8.24996 107.578 7.52561C107.418 6.95791 107.114 6.44147 106.694 6.02687C106.329 5.63657 105.871 5.34426 105.363 5.17677C104.825 4.99361 104.262 4.89813 103.693 4.89399C102.972 4.8844 102.261 5.06029 101.627 5.40476C100.99 5.74036 100.445 6.22555 100.037 6.81866L99.8952 5.09193H97.0674V17.232H100.185V8.60194Z" fill="#F5EFE1"/>
<path d="M118.267 5.09354H111.505V7.64032H115.126V14.6851H111.505V17.2036H121.749V14.6851H118.267V5.09354Z" fill="#F5EFE1"/>
<path d="M120.955 0.452576H117.532L115.438 3.5932H117.843L120.955 0.452576Z" fill="#F5EFE1"/>
<path d="M134.879 14.3176V9.11095C134.887 8.46654 134.752 7.8283 134.483 7.24284C134.238 6.71889 133.869 6.26264 133.408 5.91377C132.915 5.55045 132.358 5.28197 131.766 5.12199C131.103 4.93639 130.417 4.84069 129.728 4.83744C128.99 4.83211 128.256 4.93756 127.549 5.15027C126.963 5.3287 126.415 5.61655 125.936 5.99861C125.523 6.32882 125.185 6.74339 124.946 7.21456C124.721 7.67254 124.605 8.17643 124.607 8.68678H127.719C127.71 8.48357 127.744 8.2808 127.817 8.09108C127.89 7.90135 128.002 7.72873 128.145 7.58394C128.428 7.29939 128.908 7.18628 129.53 7.18628C130.237 7.18628 130.805 7.36302 131.172 7.69529C131.361 7.87218 131.509 8.08773 131.607 8.32718C131.704 8.56663 131.749 8.82433 131.738 9.08267V9.78962H130.011C128.117 9.78962 126.701 10.1307 125.739 10.8377C124.778 11.5446 124.295 12.5344 124.295 13.8086C124.292 14.303 124.397 14.7921 124.602 15.2418C124.808 15.6914 125.109 16.0908 125.485 16.412C125.883 16.7379 126.332 16.9958 126.814 17.1755C127.361 17.3609 127.934 17.4564 128.511 17.4583C128.873 17.4642 129.234 17.4262 129.587 17.3451C129.895 17.272 130.197 17.1775 130.492 17.0624C130.756 16.9555 131.004 16.8128 131.229 16.6382C131.446 16.4837 131.645 16.3059 131.823 16.108C131.853 16.3188 131.901 16.5268 131.964 16.7301C132.008 16.9076 132.074 17.0787 132.162 17.2391H135.333V17.0412C135.155 16.6936 135.03 16.3212 134.963 15.9366C134.901 15.4016 134.872 14.8632 134.879 14.3247V14.3176ZM131.766 13.7591C131.668 13.9285 131.544 14.0812 131.399 14.2116C131.026 14.541 130.579 14.774 130.096 14.8903C129.809 14.972 129.511 15.0101 129.212 15.0034C128.618 15.0034 128.166 14.862 127.881 14.5792C127.738 14.4451 127.624 14.283 127.547 14.103C127.469 13.9231 127.429 13.729 127.429 13.5329C127.427 13.2675 127.487 13.0053 127.606 12.7676C127.716 12.5334 127.882 12.3295 128.088 12.1738C128.342 11.9865 128.63 11.8519 128.937 11.7779C129.342 11.6814 129.757 11.6339 130.174 11.6365H131.764L131.766 13.7591Z" fill="#F5EFE1"/>
<path d="M148.689 17.2037H138.473V19.6374H148.689V17.2037Z" fill="#F5EFE1"/>
<path d="M1.22266 25.6073H4.30849V36.869H1.22266V39.3875H10.6463V36.869H7.4774V25.6073H10.6463V23.0605H1.22266V25.6073Z" fill="#F5EFE1"/>
<path d="M24.513 28.1826C24.1489 27.7919 23.6916 27.5001 23.1839 27.3343C22.646 27.1506 22.0821 27.0546 21.5137 27.0497C20.7928 27.0391 20.0812 27.2144 19.4477 27.5587C18.811 27.8945 18.2652 28.3797 17.8571 28.9726L17.6662 27.306H14.8384V39.4443H17.9808V30.8142C18.1991 30.4449 18.5113 30.1401 18.8857 29.9305C19.3001 29.7019 19.7703 29.5935 20.243 29.6177C20.5678 29.6091 20.8922 29.6472 21.2062 29.7308C21.474 29.8024 21.7242 29.9281 21.9415 30.1002C22.1617 30.2951 22.3191 30.551 22.3939 30.8354C22.5204 31.2183 22.5801 31.62 22.5706 32.0231V39.4372H25.6848V31.9771C25.6988 31.2202 25.5938 30.4658 25.3737 29.7414C25.2258 29.1597 24.9334 28.6247 24.5236 28.1861" fill="#F5EFE1"/>
<path d="M52.0206 28.6914C51.5376 28.1684 50.949 27.7539 50.2939 27.4754C49.5465 27.1809 48.7483 27.0367 47.945 27.0513C47.1376 27.0393 46.3363 27.1933 45.5909 27.5037C44.8871 27.8074 44.2518 28.2498 43.7228 28.8045C43.1952 29.3816 42.7825 30.054 42.5068 30.7857C42.215 31.6027 42.0714 32.4651 42.0827 33.3325V33.785C42.071 34.5739 42.2245 35.3565 42.5333 36.0825C42.8181 36.79 43.2528 37.4273 43.8076 37.9507C44.366 38.4894 45.0272 38.9102 45.7517 39.1878C46.5632 39.5028 47.4282 39.6564 48.2985 39.6403C48.8616 39.6493 49.4233 39.5827 49.9687 39.4423C50.4607 39.337 50.9363 39.1658 51.3826 38.9333C51.7789 38.7448 52.15 38.5073 52.4872 38.2264C52.7779 37.9885 53.0348 37.712 53.2507 37.4045L51.6936 35.7361C51.5153 35.9625 51.3059 36.1624 51.0715 36.33C50.8331 36.4986 50.5771 36.6408 50.308 36.7541C50.023 36.8692 49.7269 36.9545 49.4243 37.0086C49.126 37.0649 48.823 37.0933 48.5194 37.0935C48.1147 37.1015 47.712 37.0343 47.3317 36.8955C46.9778 36.7697 46.6509 36.5778 46.3685 36.33C45.7754 35.8151 45.3929 35.0997 45.294 34.3205H53.5441V32.9914C53.558 32.1674 53.435 31.3467 53.18 30.563C52.902 29.8792 52.5099 29.2476 52.0206 28.6949V28.6914ZM50.407 32.2049H45.2816C45.3562 31.8351 45.4699 31.4743 45.6209 31.1286C45.8879 30.5315 46.3601 30.05 46.9518 29.7713C47.2571 29.646 47.5832 29.5789 47.9132 29.5733C48.2722 29.5626 48.6292 29.6301 48.9595 29.7713C49.2539 29.8728 49.5173 30.048 49.7248 30.2803C49.933 30.5012 50.0963 30.7605 50.2055 31.0438C50.3175 31.3433 50.3842 31.6578 50.4034 31.9769L50.407 32.2049Z" fill="#F5EFE1"/>
<path d="M62.9995 22.1842H56.2075V24.731H59.8589V36.8693H56.2075V39.3878H66.4813V36.8693H62.9995V22.1842Z" fill="#F5EFE1"/>
<path d="M76.2723 27.2777H69.6782V29.8245H73.1299V36.8692H69.6782V39.3878H79.5543V36.8692H76.2723V27.2777Z" fill="#F5EFE1"/>
<path d="M74.687 22.4949C74.4371 22.4865 74.1877 22.5249 73.9518 22.608C73.7448 22.687 73.5533 22.8019 73.3863 22.9474C73.2178 23.0878 73.0902 23.2709 73.0169 23.4776C72.9237 23.6923 72.8756 23.9239 72.8755 24.158C72.8816 24.3909 72.9295 24.6208 73.0169 24.8367C73.1042 25.0359 73.2297 25.216 73.3863 25.3669C73.5533 25.5124 73.7448 25.6273 73.9518 25.7062C74.1877 25.7894 74.4371 25.8277 74.687 25.8193C75.1728 25.8489 75.6508 25.6864 76.0179 25.3669C76.3264 25.0481 76.4989 24.6219 76.4989 24.1783C76.4989 23.7348 76.3264 23.3085 76.0179 22.9898C75.8435 22.8172 75.6351 22.6829 75.406 22.5952C75.1769 22.5076 74.9321 22.4686 74.687 22.4808" fill="#F5EFE1"/>
<path d="M106.863 28.6914C106.38 28.1684 105.792 27.7539 105.137 27.4754C104.389 27.1809 103.591 27.0367 102.788 27.0513C101.982 27.04 101.183 27.194 100.439 27.5037C99.7356 27.8079 99.1003 28.2502 98.571 28.8045C98.0434 29.3816 97.6307 30.054 97.355 30.7857C97.0632 31.6027 96.9196 32.4651 96.9308 33.3325V33.785C96.9188 34.5741 97.0729 35.3569 97.3833 36.0825C97.6668 36.7903 98.101 37.4277 98.6558 37.9507C99.2142 38.4894 99.8754 38.9102 100.6 39.1878C101.411 39.5026 102.276 39.6563 103.147 39.6403C103.71 39.6493 104.271 39.5827 104.817 39.4423C105.309 39.337 105.785 39.1658 106.231 38.9333C106.627 38.7448 106.998 38.5073 107.335 38.2264C107.626 37.9885 107.883 37.712 108.099 37.4045L106.544 35.7361C106.364 35.9621 106.154 36.162 105.92 36.33C105.681 36.4986 105.425 36.6408 105.156 36.7541C104.871 36.8692 104.575 36.9545 104.273 37.0086C103.98 37.067 103.682 37.0983 103.384 37.1023C102.979 37.1103 102.576 37.0432 102.196 36.9044C101.842 36.7781 101.515 36.5862 101.233 36.3388C100.64 35.8239 100.257 35.1085 100.158 34.3293H108.392V33.0002C108.406 32.1742 108.281 31.3518 108.025 30.5666C107.725 29.8939 107.335 29.2653 106.865 28.6985L106.863 28.6914ZM105.252 32.2085H100.126C100.201 31.8387 100.315 31.4778 100.466 31.1321C100.604 30.8275 100.796 30.5498 101.031 30.3121C101.255 30.0954 101.513 29.9164 101.795 29.7819C102.101 29.6567 102.427 29.5896 102.758 29.5839C103.117 29.5729 103.475 29.6405 103.806 29.7819C104.1 29.8839 104.362 30.0591 104.569 30.2909C104.778 30.5118 104.941 30.7711 105.05 31.0544C105.162 31.3539 105.229 31.6684 105.248 31.9875L105.252 32.2085Z" fill="#F5EFE1"/>
<path d="M121.234 28.1825C120.869 27.7924 120.411 27.5007 119.903 27.3342C119.366 27.1504 118.802 27.0543 118.233 27.0496C117.512 27.04 116.801 27.2159 116.167 27.5604C115.53 27.896 114.984 28.3812 114.577 28.9743L114.379 27.3059H111.551V39.4442H114.695V30.8141C114.914 30.4453 115.226 30.1405 115.6 29.9304C116.015 29.7016 116.486 29.5932 116.959 29.6176C117.283 29.6091 117.607 29.6472 117.92 29.7307C118.189 29.8023 118.439 29.928 118.657 30.1001C118.877 30.2955 119.034 30.5512 119.11 30.8353C119.236 31.2182 119.296 31.6199 119.287 32.023V39.4372H122.399V31.9771C122.413 31.2201 122.308 30.4657 122.088 29.7413C121.941 29.1595 121.649 28.6243 121.24 28.186" fill="#F5EFE1"/>
<path d="M149.452 33.0215C149.465 32.1955 149.341 31.373 149.085 30.5878C148.858 29.8897 148.492 29.2447 148.01 28.6914C147.527 28.1684 146.938 27.754 146.283 27.4754C145.536 27.1807 144.738 27.0366 143.934 27.0513C143.129 27.04 142.329 27.194 141.586 27.5037C140.882 27.8075 140.248 28.2499 139.719 28.8045C139.19 29.3811 138.777 30.0536 138.501 30.7857C138.21 31.6027 138.066 32.4651 138.077 33.3325V33.785C138.065 34.5741 138.219 35.3569 138.53 36.0826C138.813 36.7903 139.247 37.4278 139.802 37.9507C140.361 38.489 141.022 38.9097 141.746 39.1878C142.558 39.5026 143.423 39.6563 144.293 39.6403C144.856 39.6493 145.418 39.5828 145.963 39.4423C146.455 39.3366 146.931 39.1654 147.377 38.9333C147.773 38.7444 148.143 38.5069 148.48 38.2264C148.771 37.9885 149.028 37.712 149.244 37.4046L147.688 35.7362C147.51 35.9621 147.3 36.1619 147.066 36.33C146.827 36.4982 146.57 36.6404 146.301 36.7542C146.016 36.8691 145.72 36.9544 145.417 37.0087C145.118 37.0649 144.815 37.0933 144.511 37.0935C144.106 37.1015 143.703 37.0344 143.323 36.8955C142.969 36.7689 142.643 36.5771 142.36 36.33C141.767 35.8151 141.384 35.0997 141.285 34.3205H149.521V33.0197L149.452 33.0215ZM146.396 32.2014H141.271C141.346 31.8316 141.459 31.4708 141.61 31.1251C141.749 30.8199 141.941 30.5422 142.178 30.305C142.401 30.0876 142.659 29.9084 142.941 29.7748C143.246 29.6495 143.573 29.5824 143.903 29.5769C144.262 29.5659 144.62 29.6334 144.951 29.7748C145.244 29.8763 145.507 30.0516 145.714 30.2838C145.922 30.5047 146.086 30.764 146.195 31.0473C146.307 31.3468 146.374 31.6613 146.393 31.9805L146.396 32.2014Z" fill="#F5EFE1"/>
<path d="M90.4216 28.4088C90.0754 27.9698 89.6287 27.6207 89.1191 27.3908C88.5397 27.1384 87.9129 27.0131 87.281 27.0231C86.575 27.0051 85.8753 27.1604 85.2432 27.4756C84.6343 27.7759 84.1018 28.2111 83.6862 28.7481C83.2348 29.33 82.8988 29.9929 82.6965 30.701C82.4613 31.5178 82.3452 32.3643 82.3518 33.2142V33.4405C82.3489 34.2757 82.468 35.1069 82.7053 35.9077C82.9145 36.6105 83.2499 37.2692 83.695 37.8518C84.1075 38.3811 84.6289 38.8157 85.2238 39.1261C85.8553 39.441 86.5544 39.5964 87.2598 39.5786C87.8441 39.5924 88.4242 39.4765 88.9583 39.2392C89.4392 39.0133 89.872 38.6964 90.2326 38.3061V40.4852C90.2368 40.5341 90.2269 40.5831 90.2043 40.6266C90.2079 40.7045 90.1948 40.7822 90.1658 40.8545C90.1367 40.9268 90.0924 40.992 90.0359 41.0457C89.9794 41.0994 89.912 41.1402 89.8382 41.1655C89.7645 41.1908 89.6862 41.1999 89.6087 41.1922H83.9124V43.739H91.581C91.8169 43.7455 92.0517 43.7037 92.2708 43.6162C92.4899 43.5286 92.6889 43.3972 92.8553 43.23C93.1947 42.8889 93.3361 42.6997 93.3361 42.1536V27.2776H90.5083L90.4216 28.4088ZM90.2449 35.9077C90.0547 36.2796 89.759 36.587 89.3948 36.7914C88.9765 37.0097 88.5091 37.1168 88.0375 37.1025C87.6404 37.1203 87.2467 37.0221 86.9046 36.8197C86.5883 36.6258 86.3181 36.3652 86.1128 36.0562C85.8949 35.7096 85.7416 35.3263 85.6603 34.9251C85.5534 34.4617 85.5058 33.9866 85.519 33.5112V33.2849C85.5186 32.7982 85.578 32.3133 85.6957 31.841C85.7863 31.4292 85.9491 31.0367 86.1764 30.6816C86.3807 30.3641 86.6507 30.0941 86.9682 29.8898C87.3118 29.6908 87.7043 29.5922 88.1011 29.6053C88.5635 29.5947 89.021 29.7024 89.4302 29.9181C89.7944 30.1225 90.0901 30.4299 90.2803 30.8018V35.9272L90.2449 35.9077Z" fill="#F5EFE1"/>
<path d="M130.918 24.3065H127.804V27.2775H125.031V29.5751H127.804V37.8376C127.804 38.3483 127.981 38.5746 128.286 38.9139C128.452 39.0811 128.651 39.2125 128.87 39.3C129.089 39.3876 129.323 39.4294 129.559 39.4229H135.391V36.869H131.515C131.148 36.869 130.95 36.6711 130.921 36.3035V29.568H135.449V27.2704H130.921L130.918 24.3065Z" fill="#F5EFE1"/>
<path d="M34.3893 24.3065H31.2751V27.2775H28.5039V29.5751H31.2751V37.8376C31.2751 38.3483 31.4519 38.5746 31.7559 38.9139C31.9223 39.0812 32.1212 39.2127 32.3403 39.3003C32.5595 39.3878 32.7942 39.4295 33.0301 39.4229H38.8625V36.869H34.9866C34.9091 36.8767 34.8308 36.8676 34.757 36.8424C34.6833 36.8171 34.6159 36.7762 34.5594 36.7226C34.5029 36.6689 34.4586 36.6037 34.4295 36.5314C34.4005 36.4591 34.3873 36.3813 34.391 36.3035V29.568H38.919V27.2704H34.3893V24.3065Z" fill="#F5EFE1"/>
<path d="M8.80818 7.0731H11.864V6.64893C11.8687 6.47877 11.8592 6.30852 11.8357 6.13993C11.8052 5.47782 11.6815 4.82333 11.4681 4.19582C11.2429 3.48813 10.8578 2.84181 10.3426 2.30698C9.82739 1.77214 9.1959 1.36316 8.49712 1.11175C7.69 0.817573 6.83579 0.673808 5.97684 0.68758C5.46272 0.687272 4.9503 0.74658 4.44983 0.864317C4.14937 0.950419 3.85429 1.05429 3.56615 1.17538C2.82979 1.52669 2.18218 2.03958 1.67152 2.67588C1.11664 3.36092 0.70278 4.14898 0.453799 4.99467C0.136747 5.964 -0.0161722 6.97949 0.0013522 7.9992V10.1766C-0.00354686 11.181 0.129668 12.1813 0.397248 13.1493C0.631991 13.9828 1.02568 14.763 1.55664 15.4469C2.07046 16.0807 2.71804 16.5931 3.45303 16.9474C3.59442 17.004 3.73582 17.0605 3.90549 17.1242C4.57386 17.3344 5.27089 17.4394 5.97154 17.4352C6.83068 17.4515 7.68533 17.3076 8.49182 17.011C9.19013 16.7588 9.82117 16.3495 10.3363 15.8148C10.8514 15.2801 11.2368 14.6342 11.4628 13.927C11.665 13.3304 11.7898 12.7102 11.8339 12.0818C11.8575 11.8659 11.8669 11.6486 11.8622 11.4314V11.0356H8.80818V12.1101C8.75162 13.0998 8.46708 13.8086 7.98635 14.231C7.50563 14.6534 6.85523 14.8814 6.0334 14.8814C5.04367 14.8814 4.33672 14.4855 3.88251 13.722C3.42829 12.9585 3.20384 11.769 3.20384 10.1554V7.92321C3.2003 7.24934 3.25947 6.57661 3.38058 5.9137C3.46978 5.3887 3.63843 4.88034 3.88074 4.40613C4.09135 4.01758 4.40508 3.69468 4.7874 3.47296C5.17887 3.26446 5.6164 3.15751 6.05991 3.1619C6.46555 3.14907 6.86974 3.21634 7.24935 3.35985C7.5694 3.46847 7.85981 3.64998 8.09769 3.89006C8.32381 4.16251 8.48786 4.48095 8.57842 4.82323C8.70605 5.23712 8.78262 5.66505 8.80641 6.09751V7.05896L8.80818 7.0731Z" fill="#F5EFE1"/>
</svg>
