<svg width="175" height="81" viewBox="0 0 175 81" fill="none" xmlns="http://www.w3.org/2000/svg">
<path d="M157 11.7721V9.92023C157 9.40266 157.076 8.95632 157.227 8.5812C157.378 8.20133 157.622 7.87607 157.96 7.60541C158.297 7.33476 158.743 7.10209 159.298 6.90741L161.452 6.15242C161.839 6.00997 162.122 5.84141 162.298 5.64672C162.474 5.45204 162.562 5.217 162.562 4.9416C162.562 4.68993 162.457 4.46676 162.245 4.27208C162.033 4.07265 161.721 3.97294 161.308 3.97294C160.925 3.97294 160.595 4.08215 160.318 4.30057C160.041 4.51899 159.882 4.83001 159.842 5.23362H157.166C157.161 4.48338 157.345 3.87085 157.718 3.39601C158.096 2.91643 158.597 2.56505 159.222 2.34188C159.847 2.11396 160.527 2 161.263 2C161.978 2 162.628 2.12346 163.212 2.37037C163.802 2.61728 164.271 2.96629 164.618 3.41738C164.971 3.86372 165.147 4.39554 165.147 5.01282C165.147 5.5019 165.054 5.93637 164.868 6.31624C164.681 6.69611 164.381 7.03561 163.968 7.33476C163.555 7.62915 163.006 7.89744 162.321 8.1396L160.182 8.90171C159.89 9.00617 159.688 9.10826 159.577 9.20798C159.471 9.30294 159.418 9.42878 159.418 9.58547V9.69231H165.117V11.7721L157 11.7721Z" fill="black"/>
<path d="M170.692 12C170.128 12 169.581 11.9288 169.052 11.7863C168.523 11.6486 168.047 11.4421 167.624 11.1667C167.205 10.8865 166.873 10.5399 166.626 10.1268C166.379 9.71367 166.256 9.23409 166.256 8.68803H168.833C168.863 8.9207 168.954 9.132 169.105 9.32194C169.256 9.50712 169.463 9.65432 169.725 9.76353C169.992 9.87274 170.314 9.92735 170.692 9.92735C171.206 9.92735 171.617 9.82289 171.924 9.61396C172.231 9.40503 172.385 9.13913 172.385 8.81624C172.385 8.59307 172.325 8.41026 172.204 8.26781C172.083 8.12536 171.906 8.02089 171.675 7.95442C171.448 7.88319 171.168 7.84758 170.836 7.84758L169.294 7.84758V6.05983H170.798C171.201 6.05983 171.516 5.96486 171.743 5.77493C171.969 5.585 172.083 5.33571 172.083 5.02707C172.083 4.74691 171.974 4.51662 171.758 4.33618C171.541 4.151 171.186 4.0584 170.692 4.0584C170.264 4.0584 169.881 4.1415 169.543 4.30769C169.206 4.47388 169.007 4.73979 168.946 5.10541H166.377C166.437 4.39316 166.651 3.80912 167.019 3.35328C167.387 2.89269 167.876 2.55318 168.485 2.33476C169.095 2.11159 169.79 2 170.571 2C171.367 2 172.073 2.11396 172.687 2.34188C173.307 2.5698 173.793 2.88794 174.146 3.2963C174.504 3.70465 174.683 4.18186 174.683 4.72792C174.683 5.19801 174.552 5.61349 174.29 5.97436C174.033 6.33523 173.642 6.59877 173.118 6.76496C173.703 6.98338 174.161 7.2849 174.494 7.66952C174.831 8.04938 175 8.5076 175 9.04416C175 9.62346 174.816 10.1363 174.448 10.5826C174.086 11.029 173.579 11.378 172.929 11.6296C172.284 11.8765 171.539 12 170.692 12Z" fill="black"/>
<path d="M1.0684 11.7721L5.51471 4.4359L1 4.4359L1 2.21368L8.38011 2.21368V4.4359L4.35943 11.7721H1.0684Z" fill="black"/>
<path d="M13.6677 12C13.1002 12 12.5504 11.9288 12.0184 11.7863C11.4864 11.6486 11.0075 11.4421 10.5819 11.1667C10.1613 10.8865 9.8269 10.5399 9.57862 10.1268C9.33034 9.7137 9.20619 9.23412 9.20619 8.68806L11.798 8.68806C11.8284 8.92073 11.9196 9.13203 12.0716 9.32196C12.2236 9.50715 12.4313 9.65435 12.6948 9.76356C12.9634 9.87277 13.2877 9.92738 13.6677 9.92738C14.1845 9.92738 14.5975 9.82291 14.9066 9.61399C15.2157 9.40506 15.3702 9.13915 15.3702 8.81626C15.3702 8.59309 15.3094 8.41028 15.1878 8.26783C15.0662 8.12538 14.8889 8.02091 14.6558 7.95444C14.4278 7.88321 14.1465 7.8476 13.8121 7.8476H12.2616L12.2616 6.05983H13.7741C14.1795 6.05983 14.4962 5.96487 14.7242 5.77493C14.9522 5.585 15.0662 5.33571 15.0662 5.02707C15.0662 4.74692 14.9573 4.51662 14.7394 4.33618C14.5215 4.151 14.1643 4.05841 13.6677 4.05841C13.237 4.05841 12.8519 4.1415 12.5124 4.30769C12.1729 4.47389 11.9728 4.73979 11.912 5.10542H9.3278C9.38861 4.39316 9.60395 3.80912 9.97385 3.35328C10.3437 2.89269 10.8352 2.55318 11.4483 2.33476C12.0615 2.11159 12.7607 2 13.5461 2C14.3467 2 15.0561 2.11396 15.6742 2.34188C16.2975 2.5698 16.7865 2.88794 17.1411 3.2963C17.5009 3.70465 17.6808 4.18186 17.6808 4.72792C17.6808 5.19801 17.549 5.61349 17.2856 5.97436C17.0271 6.33524 16.6344 6.59879 16.1075 6.76498C16.6952 6.9834 17.1563 7.28492 17.4908 7.66954C17.8303 8.0494 18 8.50762 18 9.04418C18 9.62348 17.8151 10.1363 17.4452 10.5826C17.0803 11.029 16.5711 11.378 15.9175 11.6296C15.2689 11.8765 14.519 12 13.6677 12Z" fill="black"/>
<path fill-rule="evenodd" clip-rule="evenodd" d="M40.1767 0H46.9824L48.4523 3.22947H55.5666L56.9442 5.19373L65.8611 7.73367L69.1346 9.23198L76.3105 7.63417L88.0352 11.2156L101.106 12.3124H112.938L127.685 15.5668L131.764 12.7379L133.549 6.35803H153V8.63926H135.212L133.665 14.1681L128.14 18L112.704 14.5936H101.016L87.6274 13.4701L76.2246 9.98706L68.8967 11.6187L65.1144 9.88757L55.6077 7.17961L54.4373 5.51071H47.0479L45.5779 2.28124H42.3878V3.93302L31.9152 6.83221L30.735 5.85986L27.6908 8.63926H21V6.35803H26.8529L30.6619 2.88032L32.4216 4.33008L40.1767 2.18321V0Z" fill="black"/>
<path d="M12.6131 52.7308L18.7711 31.641H25.8633L16.4353 60.3162H9.25813L0 31.641H7.17717L13.2077 52.7308H12.6131Z" fill="black"/>
<path d="M40.8597 61C38.1558 61 35.7917 60.4302 33.7674 59.2906C31.7572 58.1367 30.193 56.4416 29.0746 54.2051C27.9563 51.9544 27.3971 49.1838 27.3971 45.8932C27.3971 42.5171 27.9563 39.7322 29.0746 37.5385C30.193 35.3305 31.7572 33.6923 33.7674 32.6239C35.7917 31.5413 38.1558 31 40.8597 31C43.5918 31 45.97 31.5627 47.9944 32.688C50.0328 33.8134 51.6113 35.4801 52.7296 37.688C53.8479 39.896 54.4071 42.6311 54.4071 45.8932C54.4071 49.2407 53.8479 52.0399 52.7296 54.2906C51.6113 56.5271 50.0328 58.208 47.9944 59.3333C45.97 60.4444 43.5918 61 40.8597 61ZM40.8597 54.8675C42.8415 54.8675 44.427 54.084 45.6161 52.5171C46.8052 50.9359 47.3998 48.7137 47.3998 45.8504C47.3998 43.1581 46.8052 41.0356 45.6161 39.4829C44.427 37.916 42.8415 37.1325 40.8597 37.1325C38.9344 37.1325 37.3772 37.916 36.1881 39.4829C34.999 41.0356 34.4044 43.1724 34.4044 45.8932C34.4044 48.7279 34.999 50.9359 36.1881 52.5171C37.3772 54.084 38.9344 54.8675 40.8597 54.8675Z" fill="black"/>
<path d="M70.6377 61C68.1462 61 65.952 60.4373 64.0551 59.312C62.1723 58.1866 60.7001 56.5128 59.6383 54.2906C58.5766 52.0684 58.0458 49.312 58.0458 46.0214C58.0458 42.7165 58.5696 39.953 59.6171 37.7308C60.6788 35.5085 62.1581 33.8348 64.0551 32.7094C65.952 31.5698 68.1462 31 70.6377 31C74.2333 31 76.9726 31.8547 78.8553 33.5641C80.7381 35.2735 81.8564 37.4886 82.2103 40.2094L74.9907 41.4701C74.6651 40.245 74.1484 39.2336 73.4406 38.4359C72.747 37.6239 71.8126 37.2179 70.6377 37.2179C69.5901 37.2179 68.6629 37.5385 67.856 38.1795C67.0633 38.8063 66.4475 39.7678 66.0086 41.0641C65.5698 42.3604 65.3504 44.0128 65.3504 46.0214C65.3504 47.9872 65.5769 49.6182 66.0299 50.9145C66.4829 52.1966 67.1057 53.151 67.8985 53.7778C68.7054 54.4046 69.6184 54.7179 70.6377 54.7179C72.0958 54.7179 73.1858 54.3333 73.9078 53.5641C74.6297 52.7806 74.9907 51.8333 74.9907 50.7222H82.1679C82.1679 52.9302 81.7219 54.8034 80.8301 56.3419C79.9524 57.8661 78.6571 59.0271 76.9443 59.8248C75.2314 60.6083 73.1292 61 70.6377 61Z" fill="black"/>
<path d="M87.5942 60.3162V31.641H106.641V37.5598H94.3892V43.0726H105.877V49.0128H94.3892V54.3333H106.641V60.3162H87.5942Z" fill="black"/>
<path d="M124.364 61C122.325 61 120.435 60.6581 118.694 59.9744C116.953 59.2764 115.537 58.1937 114.447 56.7265C113.357 55.245 112.756 53.3219 112.642 50.9573H119.352C119.352 51.8262 119.572 52.5456 120.011 53.1154C120.449 53.6852 121.044 54.1054 121.794 54.3761C122.559 54.6467 123.401 54.7821 124.321 54.7821C125.057 54.7821 125.744 54.7179 126.381 54.5897C127.032 54.4615 127.556 54.2336 127.952 53.906C128.349 53.5783 128.547 53.1296 128.547 52.5598C128.547 51.8618 128.334 51.3419 127.91 51C127.499 50.6581 126.749 50.2664 125.659 49.8248L119.459 47.1111C117.42 46.2279 115.835 45.188 114.702 43.9915C113.57 42.7949 113.003 41.1638 113.003 39.0983C113.003 36.6766 113.98 34.7251 115.934 33.2436C117.901 31.7479 120.591 31 124.003 31C127.471 31 130.132 31.8262 131.987 33.4786C133.841 35.1168 134.882 37.4601 135.108 40.5085H128.441C128.271 39.5684 127.853 38.7778 127.188 38.1368C126.537 37.4957 125.475 37.1752 124.003 37.1752C122.941 37.1752 122.084 37.3746 121.433 37.7735C120.782 38.1581 120.457 38.6425 120.457 39.2265C120.457 39.7678 120.662 40.1952 121.072 40.5085C121.497 40.8219 122.127 41.1638 122.962 41.5342L129.524 44.3333C131.704 45.2877 133.324 46.406 134.386 47.688C135.462 48.9701 136 50.5085 136 52.3034C136 54.2265 135.54 55.8362 134.62 57.1325C133.714 58.4145 132.39 59.3832 130.649 60.0385C128.922 60.6795 126.827 61 124.364 61Z" fill="black"/>
<path d="M3 69.3907H5.8804L10.5287 76.2515H10.339V69.3907H13.0987V80.7296H10.4339L5.3026 73.1928H5.75967V80.7296H3V69.3907Z" fill="black"/>
<path d="M15.9265 69.3907H18.6862V76.2684C18.6862 77.0739 18.896 77.6541 19.3157 78.0089C19.7354 78.3638 20.2615 78.5413 20.8939 78.5413C21.5378 78.5413 22.0696 78.3638 22.4893 78.0089C22.9148 77.6541 23.1275 77.0739 23.1275 76.2684V69.3907H25.8786V76.2684C25.8786 77.226 25.686 78.0596 25.3008 78.7694C24.9155 79.4791 24.3521 80.0283 23.6105 80.417C22.8688 80.8057 21.9633 81 20.8939 81C19.8245 81 18.919 80.8057 18.1774 80.417C17.4414 80.0283 16.8809 79.4791 16.4957 78.7694C16.1162 78.0596 15.9265 77.226 15.9265 76.2684V69.3907Z" fill="black"/>
<path d="M28.5695 80.7296V69.3907H36.3052V71.7311H31.3292V73.911H35.9947V76.2599H31.3292V78.3638H36.3052V80.7296H28.5695Z" fill="black"/>
<path d="M43.1234 77.7301L45.6243 69.3907H48.5047L44.6757 80.7296H41.7608L38.0007 69.3907H40.9156L43.3648 77.7301H43.1234Z" fill="black"/>
<path d="M48.2754 80.7296L52.1734 69.3907H55.6834L59.3658 80.7296H56.4595L55.83 78.7356H51.8371L51.2075 80.7296H48.2754ZM52.5356 76.7331H55.2004L53.8896 72.5845L52.5356 76.7331Z" fill="black"/>
<path d="M70.1585 81C69.1869 81 68.3159 80.7465 67.5455 80.2396C66.7808 79.7326 66.1743 79.0341 65.7258 78.1441C65.2831 77.2485 65.0618 76.2205 65.0618 75.0601C65.0618 74.187 65.1911 73.39 65.4499 72.669C65.7143 71.9423 66.088 71.3171 66.571 70.7932C67.0597 70.2638 67.6404 69.8554 68.313 69.5681C68.9914 69.2808 69.7446 69.1372 70.5725 69.1372C71.8258 69.1372 72.8463 69.416 73.634 69.9737C74.4217 70.5257 74.9822 71.3931 75.3157 72.576L72.3835 73.0915C72.188 72.6239 71.9293 72.255 71.6074 71.9846C71.2854 71.7142 70.8887 71.579 70.4173 71.579C69.9688 71.579 69.5635 71.7198 69.2013 72.0015C68.8448 72.2831 68.5631 72.6831 68.3561 73.2013C68.1492 73.7195 68.0457 74.3391 68.0457 75.0601C68.0457 75.7755 68.1492 76.3951 68.3561 76.919C68.5631 77.4372 68.8448 77.8371 69.2013 78.1188C69.5635 78.4004 69.9688 78.5413 70.4173 78.5413C70.86 78.5413 71.2538 78.4511 71.5987 78.2709C71.9495 78.085 72.2225 77.8371 72.418 77.5273C72.6193 77.2119 72.7199 76.8655 72.7199 76.4881H73.2028C73.2028 77.4119 73.0907 78.2117 72.8665 78.8877C72.6422 79.5636 72.3059 80.0847 71.8575 80.4508C71.409 80.8169 70.8427 81 70.1585 81ZM73.0648 80.7296L72.7199 78.3976V76.3867L70.4173 76.3698V74.7137H75.3415V80.7296H73.0648Z" fill="black"/>
<path d="M78.0394 80.7296V69.3907H85.7751V71.7311H80.799V73.911H85.4646V76.2599H80.799V78.3638H85.7751V80.7296H78.0394Z" fill="black"/>
<path d="M88.5658 69.3907H91.4462L96.0946 76.2515H95.9048V69.3907H98.6645V80.7296H95.9997L90.8684 73.1928H91.3255V80.7296H88.5658V69.3907Z" fill="black"/>
<path d="M101.57 80.7296V69.3907H109.306V71.7311H104.33V73.911H108.995V76.2599H104.33V78.3638H109.306V80.7296H101.57Z" fill="black"/>
<path d="M112.148 80.7296V69.3907H116.667C118.116 69.3907 119.24 69.7174 120.039 70.3708C120.844 71.0186 121.246 71.8888 121.246 72.9816C121.246 74.0519 120.844 74.9109 120.039 75.5586C119.24 76.2008 118.116 76.5219 116.667 76.5219H114.908V80.7296H112.148ZM118.185 80.7296L115.365 75.2545H118.28L121.798 80.7296H118.185ZM114.908 74.7644H116.357C117.041 74.7644 117.553 74.6264 117.892 74.3504C118.237 74.0688 118.409 73.7111 118.409 73.2773C118.409 72.8267 118.263 72.4578 117.969 72.1705C117.682 71.8776 117.248 71.7311 116.667 71.7311H114.908V74.7644Z" fill="black"/>
<path d="M122.657 80.7296L126.555 69.3907H130.065L133.747 80.7296H130.841L130.212 78.7356H126.219L125.589 80.7296H122.657ZM126.917 76.7331H129.582L128.271 72.5845L126.917 76.7331Z" fill="black"/>
<path d="M139.909 81C138.897 81 138.006 80.7775 137.235 80.3325C136.471 79.8875 135.873 79.2256 135.441 78.3469C135.01 77.4682 134.795 76.3782 134.795 75.077C134.795 73.7702 135.007 72.6774 135.433 71.7987C135.864 70.92 136.465 70.2581 137.235 69.8131C138.006 69.3625 138.897 69.1372 139.909 69.1372C141.369 69.1372 142.481 69.4751 143.246 70.1511C144.011 70.827 144.465 71.7029 144.609 72.7788L141.677 73.2773C141.544 72.7929 141.334 72.393 141.047 72.0775C140.765 71.7565 140.386 71.5959 139.909 71.5959C139.483 71.5959 139.107 71.7227 138.779 71.9761C138.457 72.224 138.207 72.6042 138.029 73.1168C137.85 73.6294 137.761 74.2828 137.761 75.077C137.761 75.8544 137.853 76.4993 138.037 77.0119C138.221 77.5189 138.474 77.8963 138.796 78.1441C139.124 78.392 139.495 78.5159 139.909 78.5159C140.501 78.5159 140.943 78.3638 141.237 78.0596C141.53 77.7498 141.677 77.3753 141.677 76.9359H144.591C144.591 77.809 144.41 78.5497 144.048 79.1581C143.692 79.7608 143.166 80.2198 142.47 80.5353C141.774 80.8451 140.92 81 139.909 81Z" fill="black"/>
<path d="M146.812 80.7296V69.3907H149.572V80.7296H146.812Z" fill="black"/>
<path d="M157.257 81C156.159 81 155.199 80.7747 154.377 80.3241C153.561 79.8678 152.925 79.1975 152.471 78.3131C152.017 77.4231 151.79 76.3275 151.79 75.0263C151.79 73.6914 152.017 72.5901 152.471 71.7227C152.925 70.8496 153.561 70.2018 154.377 69.7793C155.199 69.3512 156.159 69.1372 157.257 69.1372C158.367 69.1372 159.333 69.3597 160.155 69.8047C160.983 70.2497 161.624 70.9087 162.078 71.7818C162.532 72.6549 162.76 73.7364 162.76 75.0263C162.76 76.3501 162.532 77.4569 162.078 78.3469C161.624 79.2313 160.983 79.896 160.155 80.341C159.333 80.7803 158.367 81 157.257 81ZM157.257 78.5751C158.062 78.5751 158.706 78.2652 159.189 77.6456C159.672 77.0204 159.914 76.1417 159.914 75.0094C159.914 73.9448 159.672 73.1055 159.189 72.4916C158.706 71.8719 158.062 71.5621 157.257 71.5621C156.476 71.5621 155.843 71.8719 155.36 72.4916C154.877 73.1055 154.636 73.9505 154.636 75.0263C154.636 76.1473 154.877 77.0204 155.36 77.6456C155.843 78.2652 156.476 78.5751 157.257 78.5751ZM156.671 68.3852L155.377 67.3375L158.948 64L160.742 65.4195L156.671 68.3852Z" fill="black"/>
<path d="M164.901 69.3907H167.782L172.43 76.2515H172.24V69.3907H175V80.7296H172.335L167.204 73.1928H167.661V80.7296H164.901V69.3907Z" fill="black"/>
<path d="M148.119 50.2479H151.117V59.6949H148.119V50.2479ZM142 50.2479H144.998V55.9295C144.998 56.3616 145.105 56.6826 145.317 56.8923C145.536 57.0956 145.814 57.1973 146.151 57.1973C146.457 57.1973 146.76 57.1211 147.06 56.9685C147.366 56.816 147.619 56.5554 147.819 56.1868C148.019 55.8182 148.119 55.3066 148.119 54.652H148.774C148.774 55.8977 148.634 56.905 148.353 57.674C148.072 58.4366 147.687 58.9927 147.2 59.3422C146.719 59.6918 146.173 59.8665 145.561 59.8665C144.942 59.8665 144.361 59.7585 143.818 59.5424C143.274 59.3263 142.834 58.9577 142.497 58.4366C142.166 57.9155 142 57.1973 142 56.2822V50.2479Z" fill="black"/>
<path d="M160.382 59.6949V54.2231C160.382 53.7274 160.263 53.3619 160.026 53.1268C159.789 52.8853 159.501 52.7645 159.164 52.7645C158.82 52.7645 158.505 52.863 158.218 53.0601C157.93 53.2571 157.699 53.5748 157.524 54.0133C157.356 54.4455 157.271 55.0207 157.271 55.7388H156.362C156.362 54.3915 156.519 53.2952 156.831 52.45C157.149 51.6047 157.58 50.9851 158.124 50.591C158.674 50.197 159.295 50 159.988 50C160.782 50 161.428 50.1811 161.928 50.5434C162.434 50.9056 162.806 51.4045 163.043 52.04C163.28 52.6756 163.399 53.4032 163.399 54.2231V59.6949H160.382ZM154.273 59.6949V50.3051H156.915L157.271 51.8589V59.6949H154.273Z" fill="black"/>
<path d="M172.386 59.6949L172.002 57.1878V53.6702C172.002 53.1999 171.917 52.8344 171.749 52.5739C171.58 52.3133 171.221 52.183 170.671 52.183C170.346 52.183 170.081 52.2339 169.875 52.3356C169.675 52.4309 169.525 52.5612 169.425 52.7264C169.331 52.8853 169.284 53.0601 169.284 53.2507H166.042C166.042 52.5135 166.214 51.9066 166.558 51.4299C166.901 50.9469 167.417 50.5879 168.104 50.3527C168.791 50.1176 169.647 50 170.671 50C171.564 50 172.333 50.1398 172.976 50.4194C173.626 50.6991 174.125 51.1185 174.475 51.6778C174.825 52.2371 175 52.9393 175 53.7846V59.6949H172.386ZM169.481 60C168.657 60 167.96 59.8602 167.392 59.5806C166.829 59.2946 166.405 58.9101 166.117 58.4271C165.83 57.9441 165.686 57.4102 165.686 56.8255C165.686 56.2726 165.836 55.796 166.136 55.3956C166.436 54.9889 166.879 54.6743 167.467 54.4519C168.06 54.2294 168.788 54.1182 169.65 54.1182C170.175 54.1182 170.637 54.1468 171.037 54.204C171.443 54.2612 171.858 54.3311 172.283 54.4137V56.1296C171.97 56.0597 171.646 56.0057 171.308 55.9676C170.977 55.9295 170.652 55.9104 170.334 55.9104C169.89 55.9104 169.537 55.9835 169.275 56.1296C169.019 56.2695 168.891 56.5014 168.891 56.8255C168.891 57.0607 169.006 57.2672 169.238 57.4452C169.469 57.6168 169.834 57.7026 170.334 57.7026C170.759 57.7026 171.093 57.6168 171.336 57.4452C171.58 57.2736 171.752 57.0575 171.852 56.7969C171.952 56.5364 172.002 56.279 172.002 56.0248H172.704C172.704 56.7493 172.592 57.4134 172.367 58.0172C172.142 58.6209 171.792 59.1039 171.318 59.4662C170.843 59.8221 170.231 60 169.481 60Z" fill="black"/>
<path d="M146.387 45C145.572 45 144.829 44.7974 144.16 44.3924C143.498 43.9811 142.972 43.4103 142.583 42.6799C142.194 41.9433 142 41.0902 142 40.1204C142 39.1629 142.185 38.3281 142.554 37.6161C142.924 36.898 143.424 36.3395 144.055 35.9405C144.686 35.5415 145.393 35.3421 146.177 35.3421C146.884 35.3421 147.487 35.5047 147.984 35.83C148.481 36.1492 148.857 36.6341 149.112 37.2847C149.373 37.9292 149.504 38.7394 149.504 39.7153H148.653C148.653 39.3716 148.573 39.0739 148.414 38.8222C148.261 38.5644 148.057 38.365 147.802 38.2238C147.547 38.0826 147.264 38.012 146.951 38.012C146.55 38.012 146.206 38.1041 145.919 38.2882C145.639 38.4724 145.425 38.724 145.279 39.0432C145.132 39.3624 145.059 39.7214 145.059 40.1204C145.059 40.5378 145.132 40.9122 145.279 41.2436C145.432 41.5751 145.648 41.8359 145.929 42.0262C146.209 42.2165 146.537 42.3116 146.913 42.3116C147.213 42.3116 147.493 42.2318 147.754 42.0722C148.022 41.9065 148.239 41.6886 148.404 41.4186C148.57 41.1485 148.653 40.8539 148.653 40.5347H149.504C149.504 41.5597 149.357 42.4037 149.064 43.0666C148.777 43.7233 148.395 44.2113 147.917 44.5305C147.445 44.8435 146.935 45 146.387 45ZM149.255 44.7054L148.653 42.3392V32H151.75V44.7054H149.255Z" fill="black"/>
<path d="M158.741 45C157.951 45 157.209 44.8036 156.514 44.4108C155.82 44.0179 155.256 43.4563 154.822 42.7259C154.395 41.9955 154.182 41.1301 154.182 40.1296C154.182 39.1291 154.395 38.2729 154.822 37.5609C155.249 36.8428 155.81 36.2934 156.505 35.9129C157.199 35.5323 157.945 35.3421 158.741 35.3421C159.531 35.3421 160.22 35.4955 160.806 35.8024C161.392 36.1032 161.864 36.5113 162.221 37.0269C162.584 37.5425 162.82 38.1256 162.928 38.7762C163.043 39.4207 163.02 40.0866 162.861 40.7741H156.6V39.2826H160.624L160.185 39.5588C160.204 39.344 160.194 39.1261 160.156 38.9051C160.124 38.6841 160.057 38.4816 159.955 38.2975C159.853 38.1072 159.707 37.9568 159.516 37.8463C159.331 37.7297 159.092 37.6714 158.799 37.6714C158.474 37.6714 158.19 37.7481 157.948 37.9016C157.712 38.0489 157.527 38.2668 157.394 38.5552C157.266 38.8376 157.202 39.1844 157.202 39.5956V40.7557C157.202 41.1424 157.26 41.4769 157.374 41.7592C157.489 42.0415 157.658 42.2625 157.881 42.4221C158.11 42.5755 158.397 42.6523 158.741 42.6523C159.022 42.6523 159.267 42.597 159.477 42.4865C159.688 42.3761 159.834 42.2011 159.917 41.9618H162.957C162.861 42.5264 162.625 43.039 162.249 43.4993C161.88 43.9596 161.395 44.3248 160.796 44.5949C160.204 44.865 159.519 45 158.741 45Z" fill="black"/>
</svg>
