<svg width="150" height="44" viewBox="0 0 150 44" fill="none" xmlns="http://www.w3.org/2000/svg">
<path d="M18.967 3.16895C19.1341 3.31447 19.3255 3.42934 19.5326 3.50829C19.7685 3.59142 20.0178 3.62978 20.2678 3.6214C20.7536 3.65131 21.2317 3.48878 21.5986 3.16895C21.9071 2.8502 22.0796 2.42398 22.0796 1.98039C22.0796 1.5368 21.9071 1.11059 21.5986 0.791834C21.2876 0.480776 20.8351 0.339385 20.2678 0.339385C20.0178 0.331004 19.7685 0.369365 19.5326 0.452497C19.3255 0.531441 19.1341 0.646317 18.967 0.791834C18.7991 0.932363 18.6721 1.11551 18.5994 1.32205C18.5064 1.53624 18.4583 1.76721 18.458 2.00072C18.4639 2.23418 18.5118 2.46468 18.5994 2.68116C18.6861 2.86788 18.8114 3.03413 18.967 3.16895" fill="black"/>
<path d="M25.1068 14.685H21.8248V5.09351H15.2307V7.64029H18.6842V14.685H15.2307V17.2036H25.1068V14.685Z" fill="black"/>
<path d="M29.4654 16.2476C29.8309 16.67 30.2989 16.9913 30.8245 17.1808C31.3773 17.3798 31.962 17.4756 32.5494 17.4635C33.2161 17.4697 33.8718 17.2937 34.4458 16.9545C35.0355 16.5985 35.5384 16.1155 35.918 15.5406L36.0948 17.2391H38.9226V5.09192H35.7766V13.6107C35.5851 14.0124 35.2772 14.3474 34.893 14.5721C34.4312 14.8132 33.9148 14.9302 33.3942 14.9114C33.077 14.9146 32.7614 14.8669 32.4593 14.7701C32.2091 14.6892 31.9912 14.5307 31.8372 14.3176C31.6525 14.0797 31.5353 13.7964 31.4978 13.4975C31.4115 13.0881 31.3736 12.6699 31.3847 12.2516V5.09192H28.2706V12.2798C28.2592 13.0738 28.364 13.8651 28.5817 14.6287C28.7598 15.2226 29.0608 15.7724 29.4654 16.2423" fill="black"/>
<path d="M42.9078 15.7031C43.303 16.2372 43.8158 16.6732 44.4065 16.9774C45.0196 17.289 45.7002 17.4444 46.3877 17.4298C47.005 17.4394 47.6158 17.3038 48.171 17.0339C48.6969 16.7658 49.1601 16.3893 49.5301 15.9293L49.7069 17.2036H52.5011V0H49.3605V6.17344C49.0078 5.76668 48.5737 5.43852 48.0862 5.21022C47.5612 4.97566 46.9909 4.85979 46.416 4.87088C45.7188 4.85285 45.0282 5.00897 44.4065 5.3251C43.8153 5.62772 43.3023 6.0633 42.9078 6.59761C42.4647 7.17382 42.1463 7.83587 41.9728 8.54172C41.7494 9.36206 41.6447 10.2102 41.6618 11.0602V11.2988C41.6606 12.1293 41.7652 12.9566 41.9728 13.7608C42.1581 14.4623 42.4754 15.1222 42.9078 15.7049V15.7031ZM44.7458 11.0655C44.7477 10.5808 44.7956 10.0973 44.889 9.62158C44.961 9.21316 45.1046 8.82067 45.3132 8.46218C45.4992 8.13939 45.7613 7.86696 46.0767 7.66863C46.4186 7.46727 46.8114 7.36906 47.2078 7.38585C47.6747 7.36945 48.1366 7.48721 48.5386 7.72519C48.8977 7.97054 49.1899 8.30162 49.3887 8.68841V13.6123C49.1927 14.0006 48.8999 14.3317 48.5386 14.5738C48.1366 14.8117 47.6747 14.9295 47.2078 14.9131C46.8113 14.9308 46.4182 14.8325 46.0767 14.6303C45.7688 14.4355 45.508 14.1747 45.3132 13.8668C45.1046 13.5178 44.9609 13.134 44.889 12.7339C44.7942 12.2686 44.7463 11.7949 44.7458 11.32V11.0655Z" fill="black"/>
<path d="M57.9624 17.1755C58.5095 17.361 59.0831 17.4565 59.6608 17.4583C60.0223 17.4642 60.3831 17.4262 60.7354 17.3452C61.0438 17.272 61.3467 17.1775 61.6421 17.0624C61.9053 16.9551 62.1527 16.8124 62.3773 16.6382C62.594 16.4838 62.7932 16.3059 62.9711 16.108C63.0017 16.3188 63.049 16.5268 63.1125 16.7301C63.1563 16.9076 63.2228 17.0787 63.3105 17.2391H66.4811V17.0412C66.3039 16.6933 66.1794 16.3211 66.1118 15.9366C66.0235 15.404 65.9856 14.8644 65.9986 14.3247V9.11098C66.0084 8.46647 65.8731 7.82801 65.6027 7.24287C65.3582 6.71892 64.9893 6.26267 64.5282 5.9138C64.0349 5.55006 63.4781 5.28154 62.8863 5.12202C62.2228 4.93642 61.5375 4.84072 60.8485 4.83747C60.1106 4.83214 59.376 4.93759 58.6693 5.1503C58.0831 5.32834 57.5361 5.61623 57.0575 5.99864C56.6437 6.3282 56.3055 6.74289 56.066 7.21459C55.8408 7.67257 55.7246 8.17646 55.7267 8.68681H58.8461C58.8379 8.48352 58.8713 8.2807 58.9442 8.09076C59.0172 7.90083 59.1281 7.72778 59.2703 7.5822C59.553 7.29942 60.0338 7.18631 60.6559 7.18631C61.3628 7.18631 61.9302 7.36305 62.2978 7.69532C62.4864 7.87221 62.6345 8.08776 62.7322 8.32721C62.8298 8.56666 62.8745 8.82437 62.8633 9.0827V9.78965H61.1366C59.242 9.78965 57.8263 10.129 56.8649 10.8377C55.9034 11.5464 55.4209 12.5344 55.4209 13.8087C55.4177 14.303 55.5224 14.7921 55.7279 15.2418C55.9333 15.6915 56.2345 16.0908 56.6103 16.412C57.0086 16.7527 57.4697 17.0121 57.9677 17.1755H57.9624ZM58.7312 12.8172C58.8423 12.5835 59.0078 12.3799 59.2137 12.2233C59.4672 12.036 59.7557 11.9014 60.062 11.8274C60.4673 11.731 60.8826 11.6835 61.2992 11.686H62.8898V13.7733C62.792 13.9426 62.6679 14.0954 62.5222 14.2258C62.3503 14.38 62.1604 14.513 61.9567 14.6217C61.7254 14.7499 61.4773 14.8451 61.2197 14.9044C60.9324 14.9862 60.6345 15.0243 60.336 15.0175C59.7421 15.0175 59.2897 14.8762 59.0069 14.5934C58.8633 14.4596 58.7488 14.2976 58.6707 14.1176C58.5925 13.9376 58.5523 13.7434 58.5527 13.5471C58.5539 13.2911 58.6144 13.0388 58.7294 12.8101" fill="black"/>
<path d="M71.9423 16.9774C72.5553 17.2894 73.2359 17.4448 73.9236 17.4298C74.5408 17.439 75.1515 17.3034 75.7068 17.0339C76.2325 16.7662 76.6952 16.3897 77.0642 15.9293L77.2409 17.2036H80.0422V0H76.8945V6.17344C76.5426 5.7659 76.1083 5.43761 75.6202 5.21022C75.0958 4.97586 74.5261 4.85999 73.9518 4.87088C73.2546 4.85248 72.5639 5.00861 71.9423 5.3251C71.3506 5.62771 70.837 6.06326 70.4418 6.59761C69.9987 7.17353 69.6808 7.83573 69.5087 8.54172C69.2852 9.36206 69.1805 10.2102 69.1976 11.0602V11.2988C69.1965 12.1293 69.301 12.9566 69.5087 13.7608C69.7106 14.4558 70.0259 15.1126 70.4418 15.7049C70.8444 16.2328 71.3562 16.6675 71.9423 16.9792V16.9774ZM72.3099 11.0655C72.3121 10.5809 72.3594 10.0975 72.4513 9.62158C72.5234 9.21316 72.667 8.82067 72.8755 8.46218C73.0624 8.13948 73.3251 7.86712 73.6408 7.66863C73.9826 7.46708 74.3755 7.36886 74.7719 7.38585C75.2388 7.36965 75.7006 7.4874 76.1027 7.72519C76.4617 7.9702 76.7534 8.30139 76.9511 8.68841V13.6123C76.7558 14.0005 76.4636 14.3317 76.1027 14.5738C75.7006 14.8116 75.2388 14.9293 74.7719 14.9131C74.3754 14.931 73.9822 14.8327 73.6408 14.6303C73.3325 14.4353 73.0712 14.1746 72.8755 13.8668C72.667 13.5178 72.5233 13.134 72.4513 12.7339C72.358 12.2684 72.3106 11.7948 72.3099 11.32V11.0655Z" fill="black"/>
<path d="M93.5625 14.3176V9.11094C93.5713 8.46653 93.436 7.8283 93.1666 7.24283C92.9221 6.71838 92.5525 6.262 92.0903 5.91376C91.5977 5.55 91.0414 5.28147 90.4502 5.12198C89.7867 4.93663 89.1013 4.84093 88.4124 4.83743C87.6768 4.83267 86.9447 4.93812 86.2403 5.15026C85.6536 5.32829 85.106 5.61618 84.6267 5.9986C84.2133 6.32819 83.8758 6.7429 83.637 7.21455C83.4118 7.67253 83.2956 8.17642 83.2976 8.68677H86.41C86.4017 8.48374 86.4351 8.28116 86.5081 8.09151C86.581 7.90185 86.692 7.72912 86.8341 7.58393C87.1169 7.29939 87.5994 7.18627 88.2215 7.18627C88.9285 7.18627 89.494 7.36301 89.8634 7.69528C90.052 7.87217 90.2002 8.08772 90.2978 8.32717C90.3954 8.56662 90.4402 8.82433 90.429 9.08267V9.78962H88.7023C86.8059 9.78962 85.392 10.1307 84.4288 10.8377C83.4655 11.5446 82.9866 12.5343 82.9866 13.8086C82.9835 14.3028 83.0881 14.7917 83.2932 15.2413C83.4984 15.6909 83.799 16.0904 84.1742 16.412C84.5726 16.7382 85.0223 16.9962 85.5051 17.1755C86.0522 17.3611 86.6258 17.4566 87.2035 17.4583C87.565 17.4641 87.9258 17.4261 88.2781 17.3451C88.5859 17.272 88.8883 17.1775 89.183 17.0624C89.4462 16.9551 89.6936 16.8124 89.9182 16.6382C90.1359 16.4842 90.3356 16.3063 90.5138 16.108C90.5444 16.3188 90.5916 16.5268 90.6552 16.7301C90.699 16.9076 90.7655 17.0787 90.8531 17.2391H94.0168V17.0412C93.8395 16.6935 93.7155 16.3211 93.6491 15.9365C93.5864 15.4016 93.558 14.8632 93.5643 14.3247L93.5625 14.3176ZM90.4237 13.7591C90.3259 13.9285 90.2018 14.0812 90.0561 14.2116C89.8836 14.3659 89.6931 14.4988 89.4887 14.6075C89.258 14.7354 89.0105 14.8306 88.7535 14.8903C88.4663 14.972 88.1684 15.0101 87.8698 15.0034C87.2742 15.0034 86.8218 14.862 86.539 14.5792C86.3959 14.4451 86.282 14.283 86.2041 14.103C86.1263 13.9231 86.0863 13.729 86.0865 13.5329C86.0844 13.2675 86.145 13.0053 86.2633 12.7676C86.3729 12.5336 86.5379 12.3298 86.744 12.1738C86.998 11.9862 87.2871 11.8515 87.5941 11.7779C87.9993 11.6814 88.4147 11.6339 88.8313 11.6365H90.4219L90.4237 13.7591Z" fill="black"/>
<path d="M100.185 8.60188C100.405 8.23354 100.716 7.92892 101.09 7.71819C101.505 7.4901 101.976 7.38238 102.449 7.40713C102.773 7.39772 103.097 7.43583 103.41 7.52024C103.679 7.59049 103.93 7.71566 104.147 7.88786C104.367 8.0842 104.524 8.34036 104.6 8.62485C104.726 9.00771 104.786 9.40944 104.777 9.81253V17.2267H107.889V9.76127C107.903 9.00434 107.798 8.2499 107.578 7.52555C107.418 6.95785 107.114 6.4414 106.694 6.02681C106.329 5.6365 105.871 5.3442 105.363 5.17671C104.825 4.99355 104.261 4.89807 103.693 4.89393C102.972 4.88434 102.261 5.06022 101.627 5.4047C100.99 5.7403 100.444 6.22549 100.037 6.8186L99.8951 5.09187H97.0673V17.232H100.185V8.60188Z" fill="black"/>
<path d="M118.267 5.09351H111.505V7.64029H115.126V14.685H111.505V17.2036H121.749V14.685H118.267V5.09351Z" fill="black"/>
<path d="M120.955 0.452637H117.532L115.438 3.59326H117.843L120.955 0.452637Z" fill="black"/>
<path d="M134.878 14.3177V9.11098C134.887 8.46657 134.752 7.82833 134.483 7.24287C134.238 6.71892 133.869 6.26267 133.408 5.9138C132.914 5.55048 132.358 5.282 131.766 5.12202C131.103 4.93642 130.417 4.84072 129.728 4.83747C128.99 4.83214 128.256 4.93759 127.549 5.1503C126.963 5.32873 126.415 5.61658 125.935 5.99864C125.523 6.32885 125.185 6.74342 124.946 7.21459C124.721 7.67257 124.604 8.17646 124.606 8.68681H127.719C127.71 8.4836 127.744 8.28083 127.817 8.09111C127.89 7.90138 128.002 7.72876 128.145 7.58397C128.427 7.29942 128.908 7.18631 129.53 7.18631C130.237 7.18631 130.805 7.36305 131.172 7.69532C131.361 7.87221 131.509 8.08776 131.607 8.32721C131.704 8.56666 131.749 8.82437 131.738 9.0827V9.78965H130.011C128.116 9.78965 126.701 10.1308 125.739 10.8377C124.778 11.5447 124.295 12.5344 124.295 13.8087C124.292 14.303 124.397 14.7921 124.602 15.2418C124.808 15.6915 125.109 16.0908 125.485 16.412C125.883 16.7379 126.332 16.9959 126.814 17.1755C127.36 17.361 127.933 17.4565 128.511 17.4583C128.873 17.4643 129.234 17.4263 129.587 17.3452C129.895 17.272 130.197 17.1775 130.492 17.0624C130.756 16.9555 131.004 16.8128 131.229 16.6382C131.446 16.4838 131.645 16.3059 131.823 16.108C131.853 16.3188 131.9 16.5268 131.964 16.7301C132.008 16.9076 132.074 17.0787 132.162 17.2391H135.333V17.0412C135.155 16.6936 135.03 16.3212 134.963 15.9366C134.9 15.4017 134.872 14.8633 134.878 14.3247V14.3177ZM131.766 13.7592C131.668 13.9285 131.544 14.0812 131.398 14.2116C131.026 14.541 130.579 14.7741 130.096 14.8903C129.809 14.972 129.511 15.0101 129.212 15.0034C128.618 15.0034 128.166 14.862 127.881 14.5792C127.738 14.4451 127.624 14.2831 127.547 14.1031C127.469 13.9231 127.429 13.729 127.429 13.533C127.427 13.2675 127.487 13.0053 127.606 12.7677C127.716 12.5334 127.881 12.3296 128.088 12.1738C128.342 11.9865 128.63 11.8519 128.936 11.778C129.342 11.6814 129.757 11.634 130.174 11.6366H131.764L131.766 13.7592Z" fill="black"/>
<path d="M148.689 17.2037H138.473V19.6374H148.689V17.2037Z" fill="black"/>
<path d="M1.22266 25.6073H4.30849V36.869H1.22266V39.3875H10.6463V36.869H7.47739V25.6073H10.6463V23.0605H1.22266V25.6073Z" fill="black"/>
<path d="M24.513 28.1827C24.1489 27.792 23.6916 27.5001 23.184 27.3343C22.6461 27.1507 22.0822 27.0546 21.5138 27.0498C20.7928 27.0392 20.0813 27.2145 19.4477 27.5588C18.811 27.8946 18.2652 28.3797 17.8571 28.9727L17.6662 27.306H14.8384V39.4444H17.9808V30.8143C18.1992 30.445 18.5114 30.1401 18.8857 29.9306C19.3002 29.7019 19.7703 29.5936 20.2431 29.6178C20.5679 29.6091 20.8923 29.6472 21.2063 29.7309C21.474 29.8024 21.7243 29.9282 21.9415 30.1003C22.1617 30.2952 22.3192 30.551 22.394 30.8355C22.5204 31.2183 22.5802 31.6201 22.5707 32.0232V39.4373H25.6848V31.9772C25.6988 31.2203 25.5939 30.4658 25.3738 29.7415C25.2258 29.1597 24.9334 28.6248 24.5236 28.1862" fill="black"/>
<path d="M52.0204 28.6914C51.5374 28.1684 50.9488 27.754 50.2937 27.4755C49.5463 27.1809 48.7481 27.0368 47.9448 27.0513C47.1374 27.0393 46.3362 27.1933 45.5907 27.5037C44.8869 27.8074 44.2516 28.2498 43.7226 28.8045C43.195 29.3816 42.7823 30.0541 42.5066 30.7858C42.2148 31.6027 42.0712 32.4651 42.0825 33.3325V33.785C42.0708 34.5739 42.2243 35.3565 42.5331 36.0826C42.8179 36.79 43.2527 37.4274 43.8074 37.9507C44.3658 38.4894 45.027 38.9102 45.7515 39.1878C46.563 39.5028 47.4281 39.6565 48.2983 39.6403C48.8614 39.6494 49.4231 39.5828 49.9685 39.4424C50.4605 39.3371 50.9361 39.1659 51.3824 38.9333C51.7787 38.7448 52.1498 38.5073 52.487 38.2264C52.7778 37.9885 53.0346 37.712 53.2505 37.4046L51.6934 35.7362C51.5151 35.9625 51.3057 36.1624 51.0713 36.33C50.8329 36.4986 50.5769 36.6408 50.3078 36.7542C50.0228 36.8692 49.7267 36.9545 49.4241 37.0087C49.1258 37.0649 48.8228 37.0933 48.5192 37.0935C48.1145 37.1015 47.7118 37.0344 47.3316 36.8956C46.9776 36.7697 46.6507 36.5778 46.3684 36.33C45.7752 35.8151 45.3927 35.0997 45.2938 34.3205H53.5439V32.9914C53.5578 32.1674 53.4348 31.3468 53.1798 30.5631C52.9018 29.8793 52.5098 29.2476 52.0204 28.6949V28.6914ZM50.4068 32.205H45.2814C45.356 31.8351 45.4697 31.4743 45.6207 31.1286C45.8877 30.5316 46.3599 30.05 46.9516 29.7713C47.2569 29.646 47.583 29.5789 47.913 29.5733C48.272 29.5626 48.6291 29.6301 48.9593 29.7713C49.2537 29.8728 49.5171 30.0481 49.7246 30.2803C49.9328 30.5012 50.0961 30.7605 50.2053 31.0438C50.3173 31.3433 50.384 31.6578 50.4033 31.977L50.4068 32.205Z" fill="black"/>
<path d="M62.9995 22.1842H56.2075V24.731H59.8588V36.8693H56.2075V39.3878H66.4812V36.8693H62.9995V22.1842Z" fill="black"/>
<path d="M76.2723 27.2777H69.6782V29.8245H73.1299V36.8692H69.6782V39.3878H79.5543V36.8692H76.2723V27.2777Z" fill="black"/>
<path d="M74.687 22.495C74.4371 22.4866 74.1877 22.5249 73.9518 22.6081C73.7448 22.687 73.5533 22.8019 73.3863 22.9474C73.2178 23.0878 73.0902 23.271 73.0169 23.4776C72.9237 23.6924 72.8756 23.9239 72.8755 24.158C72.8816 24.3909 72.9295 24.6208 73.0169 24.8367C73.1042 25.0359 73.2297 25.216 73.3863 25.3669C73.5533 25.5124 73.7448 25.6273 73.9518 25.7063C74.1877 25.7894 74.4371 25.8278 74.687 25.8194C75.1728 25.8489 75.6508 25.6864 76.0179 25.3669C76.3264 25.0482 76.4989 24.622 76.4989 24.1784C76.4989 23.7348 76.3264 23.3086 76.0179 22.9898C75.8435 22.8173 75.6351 22.6829 75.406 22.5953C75.1769 22.5076 74.9321 22.4686 74.687 22.4808" fill="black"/>
<path d="M106.864 28.6914C106.381 28.1684 105.792 27.754 105.137 27.4755C104.39 27.1809 103.591 27.0368 102.788 27.0513C101.983 27.04 101.183 27.194 100.439 27.5037C99.7358 27.8079 99.1006 28.2502 98.5712 28.8045C98.0436 29.3816 97.6309 30.0541 97.3553 30.7858C97.0635 31.6027 96.9198 32.4651 96.9311 33.3325V33.785C96.919 34.5741 97.0732 35.3569 97.3835 36.0826C97.667 36.7903 98.1012 37.4278 98.656 37.9507C99.2144 38.4894 99.8756 38.9102 100.6 39.1878C101.412 39.5026 102.277 39.6563 103.147 39.6403C103.71 39.6494 104.272 39.5828 104.817 39.4423C105.309 39.3371 105.785 39.1659 106.231 38.9333C106.627 38.7448 106.998 38.5073 107.336 38.2264C107.626 37.9885 107.883 37.712 108.099 37.4046L106.544 35.7362C106.364 35.9621 106.154 36.162 105.92 36.33C105.682 36.4986 105.426 36.6408 105.156 36.7542C104.871 36.8692 104.575 36.9545 104.273 37.0087C103.98 37.067 103.682 37.0983 103.384 37.1023C102.979 37.1103 102.576 37.0432 102.196 36.9044C101.842 36.7781 101.516 36.5863 101.233 36.3388C100.64 35.8239 100.257 35.1085 100.158 34.3293H108.393V33.0003C108.406 32.1743 108.282 31.3518 108.025 30.5666C107.726 29.8939 107.335 29.2653 106.865 28.6985L106.864 28.6914ZM105.252 32.2085H100.126C100.201 31.8387 100.315 31.4779 100.466 31.1322C100.604 30.8275 100.796 30.5498 101.031 30.3121C101.256 30.0954 101.514 29.9164 101.795 29.7819C102.101 29.6568 102.428 29.5896 102.758 29.5839C103.118 29.5729 103.475 29.6405 103.806 29.7819C104.1 29.8839 104.363 30.0591 104.57 30.2909C104.778 30.5118 104.941 30.7711 105.05 31.0544C105.162 31.3539 105.229 31.6684 105.248 31.9876L105.252 32.2085Z" fill="black"/>
<path d="M121.234 28.1826C120.869 27.7925 120.411 27.5007 119.903 27.3342C119.366 27.1505 118.802 27.0544 118.233 27.0497C117.512 27.0401 116.801 27.216 116.167 27.5605C115.53 27.8961 114.985 28.3813 114.577 28.9744L114.379 27.306H111.551V39.4443H114.695V30.8142C114.914 30.4453 115.226 30.1406 115.6 29.9305C116.015 29.7016 116.486 29.5933 116.959 29.6177C117.283 29.6091 117.607 29.6472 117.92 29.7308C118.189 29.8024 118.44 29.9281 118.657 30.1002C118.877 30.2956 119.034 30.5513 119.11 30.8354C119.236 31.2183 119.296 31.62 119.287 32.0231V39.4372H122.399V31.9771C122.413 31.2202 122.308 30.4658 122.088 29.7414C121.941 29.1595 121.649 28.6244 121.24 28.1861" fill="black"/>
<path d="M149.452 33.0215C149.466 32.1955 149.341 31.373 149.085 30.5878C148.858 29.8898 148.492 29.2447 148.01 28.6914C147.527 28.1684 146.939 27.754 146.283 27.4755C145.536 27.1808 144.738 27.0366 143.934 27.0513C143.129 27.0401 142.329 27.194 141.586 27.5038C140.882 27.8075 140.248 28.2499 139.719 28.8045C139.191 29.3811 138.777 30.0536 138.502 30.7858C138.21 31.6027 138.066 32.4652 138.077 33.3326V33.785C138.065 34.5741 138.22 35.357 138.53 36.0826C138.813 36.7903 139.248 37.4278 139.802 37.9507C140.361 38.4891 141.022 38.9098 141.747 39.1879C142.558 39.5026 143.423 39.6563 144.293 39.6403C144.856 39.6494 145.418 39.5828 145.963 39.4424C146.455 39.3366 146.931 39.1654 147.377 38.9334C147.773 38.7444 148.143 38.5069 148.48 38.2264C148.771 37.9885 149.028 37.712 149.244 37.4046L147.688 35.7362C147.51 35.9621 147.3 36.162 147.066 36.33C146.827 36.4983 146.57 36.6405 146.301 36.7542C146.016 36.8691 145.72 36.9544 145.417 37.0087C145.118 37.0649 144.815 37.0933 144.511 37.0935C144.106 37.1015 143.703 37.0344 143.323 36.8956C142.969 36.7689 142.643 36.5771 142.36 36.33C141.767 35.8151 141.384 35.0997 141.285 34.3205H149.521V33.0197L149.452 33.0215ZM146.396 32.2014H141.271C141.346 31.8316 141.459 31.4708 141.61 31.1251C141.749 30.82 141.941 30.5422 142.178 30.305C142.401 30.0876 142.659 29.9085 142.941 29.7748C143.247 29.6496 143.573 29.5824 143.903 29.5769C144.262 29.5659 144.62 29.6334 144.951 29.7748C145.245 29.8764 145.507 30.0516 145.714 30.2838C145.923 30.5047 146.086 30.7641 146.195 31.0473C146.307 31.3468 146.374 31.6613 146.393 31.9805L146.396 32.2014Z" fill="black"/>
<path d="M90.4218 28.4088C90.0756 27.9698 89.6288 27.6207 89.1192 27.3908C88.5398 27.1384 87.9131 27.0131 87.2812 27.0231C86.5751 27.0051 85.8754 27.1604 85.2434 27.4756C84.6344 27.7759 84.1019 28.2111 83.6863 28.7481C83.2349 29.33 82.8989 29.9929 82.6966 30.701C82.4614 31.5178 82.3454 32.3643 82.3519 33.2142V33.4405C82.3491 34.2757 82.4681 35.1069 82.7054 35.9077C82.9146 36.6105 83.25 37.2692 83.6951 37.8518C84.1076 38.3811 84.629 38.8157 85.2239 39.1261C85.8554 39.441 86.5545 39.5964 87.2599 39.5786C87.8442 39.5924 88.4243 39.4765 88.9584 39.2392C89.4394 39.0133 89.8721 38.6964 90.2327 38.3061V40.4852C90.2369 40.5341 90.2271 40.5831 90.2044 40.6266C90.2081 40.7045 90.1949 40.7822 90.1659 40.8545C90.1368 40.9268 90.0925 40.992 90.036 41.0457C89.9795 41.0994 89.9121 41.1402 89.8384 41.1655C89.7646 41.1908 89.6863 41.1999 89.6088 41.1922H83.9125V43.739H91.5812C91.8171 43.7455 92.0518 43.7037 92.2709 43.6162C92.4901 43.5286 92.689 43.3972 92.8554 43.23C93.1948 42.8889 93.3362 42.6997 93.3362 42.1536V27.2776H90.5084L90.4218 28.4088ZM90.245 35.9077C90.0549 36.2796 89.7591 36.587 89.3949 36.7914C88.9766 37.0097 88.5092 37.1168 88.0376 37.1025C87.6405 37.1203 87.2468 37.0221 86.9047 36.8197C86.5884 36.6258 86.3182 36.3652 86.1129 36.0562C85.895 35.7096 85.7417 35.3263 85.6605 34.9251C85.5535 34.4617 85.506 33.9866 85.5191 33.5112V33.2849C85.5188 32.7982 85.5781 32.3133 85.6958 31.841C85.7864 31.4292 85.9492 31.0367 86.1765 30.6816C86.3808 30.3641 86.6508 30.0941 86.9683 29.8898C87.3119 29.6908 87.7044 29.5922 88.1012 29.6053C88.5637 29.5947 89.0211 29.7024 89.4303 29.9181C89.7945 30.1225 90.0902 30.4299 90.2804 30.8018V35.9272L90.245 35.9077Z" fill="black"/>
<path d="M130.918 24.3065H127.804V27.2775H125.031V29.5751H127.804V37.8375C127.804 38.3483 127.981 38.5745 128.286 38.9139C128.452 39.0811 128.651 39.2125 128.87 39.3C129.089 39.3876 129.323 39.4294 129.559 39.4229H135.391V36.869H131.515C131.148 36.869 130.95 36.6711 130.921 36.3035V29.568H135.449V27.2704H130.921L130.918 24.3065Z" fill="black"/>
<path d="M34.389 24.3065H31.2749V27.2775H28.5037V29.5751H31.2749V37.8375C31.2749 38.3483 31.4516 38.5745 31.7556 38.9139C31.922 39.0812 32.1209 39.2127 32.3401 39.3002C32.5592 39.3878 32.794 39.4295 33.0299 39.4229H38.8622V36.869H34.9864C34.9088 36.8767 34.8305 36.8676 34.7568 36.8423C34.6831 36.8171 34.6157 36.7762 34.5591 36.7225C34.5026 36.6689 34.4583 36.6037 34.4293 36.5313C34.4002 36.459 34.3871 36.3813 34.3908 36.3035V29.568H38.9188V27.2704H34.389V24.3065Z" fill="black"/>
<path d="M8.80818 7.07307H11.864V6.6489C11.8687 6.47874 11.8592 6.30849 11.8357 6.1399C11.8052 5.47779 11.6815 4.8233 11.4681 4.19579C11.2429 3.4881 10.8578 2.84178 10.3426 2.30695C9.82739 1.77211 9.1959 1.36313 8.49712 1.11172C7.69 0.817542 6.83579 0.673777 5.97684 0.687549C5.46272 0.687241 4.9503 0.74655 4.44983 0.864286C4.14937 0.950389 3.85429 1.05426 3.56615 1.17534C2.82979 1.52666 2.18218 2.03955 1.67152 2.67584C1.11664 3.36089 0.70278 4.14895 0.453799 4.99464C0.136747 5.96397 -0.0161722 6.97946 0.0013522 7.99917V10.1766C-0.00354686 11.1809 0.129668 12.1812 0.397248 13.1493C0.631991 13.9827 1.02568 14.7629 1.55664 15.4469C2.07046 16.0807 2.71804 16.5931 3.45303 16.9474C3.59442 17.0039 3.73582 17.0605 3.90549 17.1241C4.57386 17.3344 5.27089 17.4393 5.97154 17.4352C6.83068 17.4514 7.68533 17.3076 8.49182 17.011C9.19013 16.7588 9.82117 16.3495 10.3363 15.8148C10.8514 15.2801 11.2368 14.6342 11.4628 13.9269C11.665 13.3303 11.7898 12.7102 11.8339 12.0818C11.8575 11.8659 11.8669 11.6486 11.8622 11.4314V11.0355H8.80818V12.1101C8.75162 13.0998 8.46708 13.8085 7.98635 14.2309C7.50563 14.6533 6.85523 14.8813 6.0334 14.8813C5.04367 14.8813 4.33672 14.4854 3.88251 13.7219C3.42829 12.9584 3.20384 11.769 3.20384 10.1554V7.92318C3.2003 7.24931 3.25947 6.57658 3.38058 5.91367C3.46978 5.38867 3.63843 4.88031 3.88074 4.4061C4.09135 4.01755 4.40508 3.69465 4.7874 3.47293C5.17887 3.26443 5.6164 3.15748 6.05991 3.16187C6.46555 3.14904 6.86974 3.21631 7.24935 3.35982C7.5694 3.46844 7.85981 3.64995 8.09769 3.89003C8.32381 4.16248 8.48786 4.48092 8.57842 4.8232C8.70605 5.23709 8.78262 5.66502 8.80641 6.09748V7.05893L8.80818 7.07307Z" fill="black"/>
</svg>
