<svg width="29" height="20" viewBox="0 0 29 20" fill="none" xmlns="http://www.w3.org/2000/svg">
<path d="M27.5373 3.11742C27.2138 1.93953 26.2608 1.01187 25.0508 0.697057C22.8574 0.125 14.0625 0.125 14.0625 0.125C14.0625 0.125 5.26761 0.125 3.07425 0.697057C1.86419 1.01192 0.91116 1.93953 0.587699 3.11742C0 5.25239 0 9.70682 0 9.70682C0 9.70682 0 14.1613 0.587699 16.2962C0.91116 17.4741 1.86419 18.3631 3.07425 18.6779C5.26761 19.25 14.0625 19.25 14.0625 19.25C14.0625 19.25 22.8574 19.25 25.0508 18.6779C26.2608 18.3631 27.2138 17.4741 27.5373 16.2962C28.125 14.1613 28.125 9.70682 28.125 9.70682C28.125 9.70682 28.125 5.25239 27.5373 3.11742V3.11742ZM11.1861 13.7511V5.66253L18.5369 9.70692L11.1861 13.7511V13.7511Z" fill="#F5EFE1"/>
</svg>
